<?xml version="1.0" encoding="us-ascii" standalone="no"?><svg xmlns="http://www.w3.org/2000/svg" xmlns:xlink="http://www.w3.org/1999/xlink" contentStyleType="text/css" height="445px" preserveAspectRatio="none" style="width:2206px;height:445px;background:#FFFFFF;" version="1.1" viewBox="0 0 2206 445" width="2206px" zoomAndPan="magnify"><defs/><g><!--class Bbox--><g id="elem_Bbox"><rect codeLine="2" fill="#F1F1F1" height="80.9766" id="Bbox" rx="2.5" ry="2.5" style="stroke:#181818;stroke-width:0.5;" width="198" x="7" y="83.94"/><ellipse cx="84.25" cy="99.94" fill="#ADD1B2" rx="11" ry="11" style="stroke:#181818;stroke-width:1.0;"/><path d="M86.7231,106.0831 Q86.1421,106.3819 85.5029,106.5313 Q84.8638,106.6807 84.1582,106.6807 Q81.6514,106.6807 80.3315,105.0289 Q79.0117,103.377 79.0117,100.2559 Q79.0117,97.1265 80.3315,95.4747 Q81.6514,93.8228 84.1582,93.8228 Q84.8638,93.8228 85.5112,93.9722 Q86.1587,94.1216 86.7231,94.4205 L86.7231,97.1431 Q86.0923,96.5621 85.4988,96.2923 Q84.9053,96.0225 84.2744,96.0225 Q82.9297,96.0225 82.2449,97.0892 Q81.5601,98.1558 81.5601,100.2559 Q81.5601,102.3477 82.2449,103.4144 Q82.9297,104.481 84.2744,104.481 Q84.9053,104.481 85.4988,104.2112 Q86.0923,103.9415 86.7231,103.3604 Z " fill="#000000"/><text fill="#000000" font-family="sans-serif" font-size="14" lengthAdjust="spacing" textLength="35" x="104.75" y="105.231">Bbox</text><line style="stroke:#181818;stroke-width:0.5;" x1="8" x2="204" y1="115.94" y2="115.94"/><ellipse cx="18" cy="129.6841" fill="none" rx="3" ry="3" style="stroke:#038048;stroke-width:1.0;"/><text fill="#000000" font-family="sans-serif" font-size="14" lengthAdjust="spacing" textLength="172" x="27" y="133.4752">nedreVenstre : Koordinat</text><ellipse cx="18" cy="146.1724" fill="none" rx="3" ry="3" style="stroke:#038048;stroke-width:1.0;"/><text fill="#000000" font-family="sans-serif" font-size="14" lengthAdjust="spacing" textLength="166" x="27" y="149.9634">oevreHoeyre : Koordinat</text><line style="stroke:#181818;stroke-width:0.5;" x1="8" x2="204" y1="156.9166" y2="156.9166"/></g><!--class Geometri--><g id="elem_Geometri"><rect codeLine="18" fill="#F1F1F1" height="64.4883" id="Geometri" rx="2.5" ry="2.5" style="stroke:#181818;stroke-width:0.5;" width="302" x="898" y="92.19"/><ellipse cx="1013.25" cy="108.19" fill="#ADD1B2" rx="11" ry="11" style="stroke:#181818;stroke-width:1.0;"/><path d="M1015.7231,114.3331 Q1015.1421,114.6319 1014.5029,114.7813 Q1013.8638,114.9307 1013.1582,114.9307 Q1010.6514,114.9307 1009.3315,113.2789 Q1008.0117,111.627 1008.0117,108.5059 Q1008.0117,105.3765 1009.3315,103.7247 Q1010.6514,102.0728 1013.1582,102.0728 Q1013.8638,102.0728 1014.5112,102.2222 Q1015.1587,102.3716 1015.7231,102.6705 L1015.7231,105.3931 Q1015.0923,104.8121 1014.4988,104.5423 Q1013.9053,104.2725 1013.2744,104.2725 Q1011.9297,104.2725 1011.2449,105.3392 Q1010.5601,106.4058 1010.5601,108.5059 Q1010.5601,110.5977 1011.2449,111.6644 Q1011.9297,112.731 1013.2744,112.731 Q1013.9053,112.731 1014.4988,112.4612 Q1015.0923,112.1915 1015.7231,111.6104 Z " fill="#000000"/><text fill="#000000" font-family="sans-serif" font-size="14" lengthAdjust="spacing" textLength="63" x="1033.75" y="113.481">Geometri</text><line style="stroke:#181818;stroke-width:0.5;" x1="899" x2="1199" y1="124.19" y2="124.19"/><ellipse cx="909" cy="137.9341" fill="none" rx="3" ry="3" style="stroke:#038048;stroke-width:1.0;"/><text fill="#000000" font-family="sans-serif" font-size="14" lengthAdjust="spacing" textLength="276" x="918" y="141.7252">koordinatsystem : KoordinatsystemKode</text><line style="stroke:#181818;stroke-width:0.5;" x1="899" x2="1199" y1="148.6783" y2="148.6783"/></g><!--class BboxListe--><g id="elem_BboxListe"><rect codeLine="7" fill="#F1F1F1" height="64.4883" id="BboxListe" rx="2.5" ry="2.5" style="stroke:#181818;stroke-width:0.5;" width="111" x="1554.5" y="92.19"/><ellipse cx="1575.35" cy="108.19" fill="#ADD1B2" rx="11" ry="11" style="stroke:#181818;stroke-width:1.0;"/><path d="M1577.8231,114.3331 Q1577.2421,114.6319 1576.6029,114.7813 Q1575.9638,114.9307 1575.2582,114.9307 Q1572.7514,114.9307 1571.4315,113.2789 Q1570.1117,111.627 1570.1117,108.5059 Q1570.1117,105.3765 1571.4315,103.7247 Q1572.7514,102.0728 1575.2582,102.0728 Q1575.9638,102.0728 1576.6112,102.2222 Q1577.2587,102.3716 1577.8231,102.6705 L1577.8231,105.3931 Q1577.1923,104.8121 1576.5988,104.5423 Q1576.0053,104.2725 1575.3744,104.2725 Q1574.0297,104.2725 1573.3449,105.3392 Q1572.6601,106.4058 1572.6601,108.5059 Q1572.6601,110.5977 1573.3449,111.6644 Q1574.0297,112.731 1575.3744,112.731 Q1576.0053,112.731 1576.5988,112.4612 Q1577.1923,112.1915 1577.8231,111.6104 Z " fill="#000000"/><text fill="#000000" font-family="sans-serif" font-size="14" lengthAdjust="spacing" textLength="66" x="1590.65" y="113.481">BboxListe</text><line style="stroke:#181818;stroke-width:0.5;" x1="1555.5" x2="1664.5" y1="124.19" y2="124.19"/><ellipse cx="1565.5" cy="137.9341" fill="none" rx="3" ry="3" style="stroke:#038048;stroke-width:1.0;"/><text fill="#000000" font-family="sans-serif" font-size="14" lengthAdjust="spacing" textLength="85" x="1574.5" y="141.7252">liste : Bbox[]</text><line style="stroke:#181818;stroke-width:0.5;" x1="1555.5" x2="1664.5" y1="148.6783" y2="148.6783"/></g><!--class Flate--><g id="elem_Flate"><rect codeLine="10" fill="#F1F1F1" height="80.9766" id="Flate" rx="2.5" ry="2.5" style="stroke:#181818;stroke-width:0.5;" width="223" x="239.5" y="83.94"/><ellipse cx="330.25" cy="99.94" fill="#ADD1B2" rx="11" ry="11" style="stroke:#181818;stroke-width:1.0;"/><path d="M332.7231,106.0831 Q332.1421,106.3819 331.5029,106.5313 Q330.8638,106.6807 330.1582,106.6807 Q327.6514,106.6807 326.3315,105.0289 Q325.0117,103.377 325.0117,100.2559 Q325.0117,97.1265 326.3315,95.4747 Q327.6514,93.8228 330.1582,93.8228 Q330.8638,93.8228 331.5112,93.9722 Q332.1587,94.1216 332.7231,94.4205 L332.7231,97.1431 Q332.0923,96.5621 331.4988,96.2923 Q330.9053,96.0225 330.2744,96.0225 Q328.9297,96.0225 328.2449,97.0892 Q327.5601,98.1558 327.5601,100.2559 Q327.5601,102.3477 328.2449,103.4144 Q328.9297,104.481 330.2744,104.481 Q330.9053,104.481 331.4988,104.2112 Q332.0923,103.9415 332.7231,103.3604 Z " fill="#000000"/><text fill="#000000" font-family="sans-serif" font-size="14" lengthAdjust="spacing" textLength="33" x="350.75" y="105.231">Flate</text><line style="stroke:#181818;stroke-width:0.5;" x1="240.5" x2="461.5" y1="115.94" y2="115.94"/><ellipse cx="250.5" cy="129.6841" fill="none" rx="3" ry="3" style="stroke:#038048;stroke-width:1.0;"/><text fill="#000000" font-family="sans-serif" font-size="14" lengthAdjust="spacing" textLength="197" x="259.5" y="133.4752">indreAvgrensning : RingListe</text><ellipse cx="250.5" cy="146.1724" fill="none" rx="3" ry="3" style="stroke:#038048;stroke-width:1.0;"/><text fill="#000000" font-family="sans-serif" font-size="14" lengthAdjust="spacing" textLength="156" x="259.5" y="149.9634">ytreAvgrensning : Ring</text><line style="stroke:#181818;stroke-width:0.5;" x1="240.5" x2="461.5" y1="156.9166" y2="156.9166"/></g><!--class FlateListe--><g id="elem_FlateListe"><rect codeLine="15" fill="#F1F1F1" height="64.4883" id="FlateListe" rx="2.5" ry="2.5" style="stroke:#181818;stroke-width:0.5;" width="109" x="1700.5" y="92.19"/><ellipse cx="1721.35" cy="108.19" fill="#ADD1B2" rx="11" ry="11" style="stroke:#181818;stroke-width:1.0;"/><path d="M1723.8231,114.3331 Q1723.2421,114.6319 1722.6029,114.7813 Q1721.9638,114.9307 1721.2582,114.9307 Q1718.7514,114.9307 1717.4315,113.2789 Q1716.1117,111.627 1716.1117,108.5059 Q1716.1117,105.3765 1717.4315,103.7247 Q1718.7514,102.0728 1721.2582,102.0728 Q1721.9638,102.0728 1722.6112,102.2222 Q1723.2587,102.3716 1723.8231,102.6705 L1723.8231,105.3931 Q1723.1923,104.8121 1722.5988,104.5423 Q1722.0053,104.2725 1721.3744,104.2725 Q1720.0297,104.2725 1719.3449,105.3392 Q1718.6601,106.4058 1718.6601,108.5059 Q1718.6601,110.5977 1719.3449,111.6644 Q1720.0297,112.731 1721.3744,112.731 Q1722.0053,112.731 1722.5988,112.4612 Q1723.1923,112.1915 1723.8231,111.6104 Z " fill="#000000"/><text fill="#000000" font-family="sans-serif" font-size="14" lengthAdjust="spacing" textLength="64" x="1736.65" y="113.481">FlateListe</text><line style="stroke:#181818;stroke-width:0.5;" x1="1701.5" x2="1808.5" y1="124.19" y2="124.19"/><ellipse cx="1711.5" cy="137.9341" fill="none" rx="3" ry="3" style="stroke:#038048;stroke-width:1.0;"/><text fill="#000000" font-family="sans-serif" font-size="14" lengthAdjust="spacing" textLength="83" x="1720.5" y="141.7252">liste : Flate[]</text><line style="stroke:#181818;stroke-width:0.5;" x1="1701.5" x2="1808.5" y1="148.6783" y2="148.6783"/></g><!--class Koordinat--><g id="elem_Koordinat"><rect codeLine="21" fill="#F1F1F1" height="97.4648" id="Koordinat" rx="2.5" ry="2.5" style="stroke:#181818;stroke-width:0.5;" width="100" x="1845" y="75.7"/><ellipse cx="1860" cy="91.7" fill="#ADD1B2" rx="11" ry="11" style="stroke:#181818;stroke-width:1.0;"/><path d="M1862.4731,97.8431 Q1861.8921,98.1419 1861.2529,98.2913 Q1860.6138,98.4407 1859.9082,98.4407 Q1857.4014,98.4407 1856.0815,96.7889 Q1854.7617,95.137 1854.7617,92.0159 Q1854.7617,88.8865 1856.0815,87.2347 Q1857.4014,85.5828 1859.9082,85.5828 Q1860.6138,85.5828 1861.2612,85.7322 Q1861.9087,85.8816 1862.4731,86.1805 L1862.4731,88.9031 Q1861.8423,88.3221 1861.2488,88.0523 Q1860.6553,87.7825 1860.0244,87.7825 Q1858.6797,87.7825 1857.9949,88.8492 Q1857.3101,89.9158 1857.3101,92.0159 Q1857.3101,94.1077 1857.9949,95.1744 Q1858.6797,96.241 1860.0244,96.241 Q1860.6553,96.241 1861.2488,95.9712 Q1861.8423,95.7015 1862.4731,95.1204 Z " fill="#000000"/><text fill="#000000" font-family="sans-serif" font-size="14" lengthAdjust="spacing" textLength="68" x="1874" y="96.991">Koordinat</text><line style="stroke:#181818;stroke-width:0.5;" x1="1846" x2="1944" y1="107.7" y2="107.7"/><ellipse cx="1856" cy="121.4441" fill="none" rx="3" ry="3" style="stroke:#038048;stroke-width:1.0;"/><text fill="#000000" font-family="sans-serif" font-size="14" lengthAdjust="spacing" textLength="69" x="1865" y="125.2352">x : double</text><ellipse cx="1856" cy="137.9324" fill="none" rx="3" ry="3" style="stroke:#038048;stroke-width:1.0;"/><text fill="#000000" font-family="sans-serif" font-size="14" lengthAdjust="spacing" textLength="67" x="1865" y="141.7234">y : double</text><ellipse cx="1856" cy="154.4207" fill="none" rx="3" ry="3" style="stroke:#038048;stroke-width:1.0;"/><text fill="#000000" font-family="sans-serif" font-size="14" lengthAdjust="spacing" textLength="68" x="1865" y="158.2117">z : double</text><line style="stroke:#181818;stroke-width:0.5;" x1="1846" x2="1944" y1="165.1648" y2="165.1648"/></g><!--class KoordinatListe--><g id="elem_KoordinatListe"><rect codeLine="26" fill="#F1F1F1" height="64.4883" id="KoordinatListe" rx="2.5" ry="2.5" style="stroke:#181818;stroke-width:0.5;" width="144" x="1980" y="92.19"/><ellipse cx="2000.85" cy="108.19" fill="#ADD1B2" rx="11" ry="11" style="stroke:#181818;stroke-width:1.0;"/><path d="M2003.3231,114.3331 Q2002.7421,114.6319 2002.1029,114.7813 Q2001.4638,114.9307 2000.7582,114.9307 Q1998.2514,114.9307 1996.9315,113.2789 Q1995.6117,111.627 1995.6117,108.5059 Q1995.6117,105.3765 1996.9315,103.7247 Q1998.2514,102.0728 2000.7582,102.0728 Q2001.4638,102.0728 2002.1112,102.2222 Q2002.7587,102.3716 2003.3231,102.6705 L2003.3231,105.3931 Q2002.6923,104.8121 2002.0988,104.5423 Q2001.5053,104.2725 2000.8744,104.2725 Q1999.5297,104.2725 1998.8449,105.3392 Q1998.1601,106.4058 1998.1601,108.5059 Q1998.1601,110.5977 1998.8449,111.6644 Q1999.5297,112.731 2000.8744,112.731 Q2001.5053,112.731 2002.0988,112.4612 Q2002.6923,112.1915 2003.3231,111.6104 Z " fill="#000000"/><text fill="#000000" font-family="sans-serif" font-size="14" lengthAdjust="spacing" textLength="99" x="2016.15" y="113.481">KoordinatListe</text><line style="stroke:#181818;stroke-width:0.5;" x1="1981" x2="2123" y1="124.19" y2="124.19"/><ellipse cx="1991" cy="137.9341" fill="none" rx="3" ry="3" style="stroke:#038048;stroke-width:1.0;"/><text fill="#000000" font-family="sans-serif" font-size="14" lengthAdjust="spacing" textLength="118" x="2000" y="141.7252">liste : Koordinat[]</text><line style="stroke:#181818;stroke-width:0.5;" x1="1981" x2="2123" y1="148.6783" y2="148.6783"/></g><!--class KoordinatsystemKode--><g id="elem_KoordinatsystemKode"><rect codeLine="29" fill="#F1F1F1" height="48" id="KoordinatsystemKode" rx="2.5" ry="2.5" style="stroke:#181818;stroke-width:0.5;" width="182" x="1235" y="100.43"/><ellipse cx="1250" cy="116.43" fill="#ADD1B2" rx="11" ry="11" style="stroke:#181818;stroke-width:1.0;"/><path d="M1252.4731,122.5731 Q1251.8921,122.8719 1251.2529,123.0213 Q1250.6138,123.1707 1249.9082,123.1707 Q1247.4014,123.1707 1246.0815,121.5189 Q1244.7617,119.867 1244.7617,116.7459 Q1244.7617,113.6165 1246.0815,111.9647 Q1247.4014,110.3128 1249.9082,110.3128 Q1250.6138,110.3128 1251.2612,110.4622 Q1251.9087,110.6116 1252.4731,110.9105 L1252.4731,113.6331 Q1251.8423,113.0521 1251.2488,112.7823 Q1250.6553,112.5125 1250.0244,112.5125 Q1248.6797,112.5125 1247.9949,113.5792 Q1247.3101,114.6458 1247.3101,116.7459 Q1247.3101,118.8377 1247.9949,119.9044 Q1248.6797,120.971 1250.0244,120.971 Q1250.6553,120.971 1251.2488,120.7012 Q1251.8423,120.4315 1252.4731,119.8504 Z " fill="#000000"/><text fill="#000000" font-family="sans-serif" font-size="14" lengthAdjust="spacing" textLength="150" x="1264" y="121.721">KoordinatsystemKode</text><line style="stroke:#181818;stroke-width:0.5;" x1="1236" x2="1416" y1="132.43" y2="132.43"/><line style="stroke:#181818;stroke-width:0.5;" x1="1236" x2="1416" y1="140.43" y2="140.43"/></g><!--class Kode--><g id="elem_Kode"><rect fill="#F1F1F1" height="48" id="Kode" rx="2.5" ry="2.5" style="stroke:#181818;stroke-width:0.5;" width="67" x="1452.5" y="100.43"/><ellipse cx="1467.5" cy="116.43" fill="#ADD1B2" rx="11" ry="11" style="stroke:#181818;stroke-width:1.0;"/><path d="M1469.9731,122.5731 Q1469.3921,122.8719 1468.7529,123.0213 Q1468.1138,123.1707 1467.4082,123.1707 Q1464.9014,123.1707 1463.5815,121.5189 Q1462.2617,119.867 1462.2617,116.7459 Q1462.2617,113.6165 1463.5815,111.9647 Q1464.9014,110.3128 1467.4082,110.3128 Q1468.1138,110.3128 1468.7612,110.4622 Q1469.4087,110.6116 1469.9731,110.9105 L1469.9731,113.6331 Q1469.3423,113.0521 1468.7488,112.7823 Q1468.1553,112.5125 1467.5244,112.5125 Q1466.1797,112.5125 1465.4949,113.5792 Q1464.8101,114.6458 1464.8101,116.7459 Q1464.8101,118.8377 1465.4949,119.9044 Q1466.1797,120.971 1467.5244,120.971 Q1468.1553,120.971 1468.7488,120.7012 Q1469.3423,120.4315 1469.9731,119.8504 Z " fill="#000000"/><text fill="#000000" font-family="sans-serif" font-size="14" lengthAdjust="spacing" textLength="35" x="1481.5" y="121.721">Kode</text><line style="stroke:#181818;stroke-width:0.5;" x1="1453.5" x2="1518.5" y1="132.43" y2="132.43"/><line style="stroke:#181818;stroke-width:0.5;" x1="1453.5" x2="1518.5" y1="140.43" y2="140.43"/></g><!--class KoordinatsystemKodeListe--><g id="elem_KoordinatsystemKodeListe"><rect codeLine="32" fill="#F1F1F1" height="64.4883" id="KoordinatsystemKodeListe" rx="2.5" ry="2.5" style="stroke:#181818;stroke-width:0.5;" width="226" x="1497" y="241.41"/><ellipse cx="1517.85" cy="257.41" fill="#ADD1B2" rx="11" ry="11" style="stroke:#181818;stroke-width:1.0;"/><path d="M1520.3231,263.5531 Q1519.7421,263.8519 1519.1029,264.0013 Q1518.4638,264.1507 1517.7582,264.1507 Q1515.2514,264.1507 1513.9315,262.4989 Q1512.6117,260.847 1512.6117,257.7259 Q1512.6117,254.5965 1513.9315,252.9447 Q1515.2514,251.2928 1517.7582,251.2928 Q1518.4638,251.2928 1519.1112,251.4422 Q1519.7587,251.5916 1520.3231,251.8905 L1520.3231,254.6131 Q1519.6923,254.0321 1519.0988,253.7623 Q1518.5053,253.4925 1517.8744,253.4925 Q1516.5297,253.4925 1515.8449,254.5592 Q1515.1601,255.6258 1515.1601,257.7259 Q1515.1601,259.8177 1515.8449,260.8844 Q1516.5297,261.951 1517.8744,261.951 Q1518.5053,261.951 1519.0988,261.6812 Q1519.6923,261.4115 1520.3231,260.8304 Z " fill="#000000"/><text fill="#000000" font-family="sans-serif" font-size="14" lengthAdjust="spacing" textLength="181" x="1533.15" y="262.701">KoordinatsystemKodeListe</text><line style="stroke:#181818;stroke-width:0.5;" x1="1498" x2="1722" y1="273.41" y2="273.41"/><ellipse cx="1508" cy="287.1541" fill="none" rx="3" ry="3" style="stroke:#038048;stroke-width:1.0;"/><text fill="#000000" font-family="sans-serif" font-size="14" lengthAdjust="spacing" textLength="200" x="1517" y="290.9452">liste : KoordinatsystemKode[]</text><line style="stroke:#181818;stroke-width:0.5;" x1="1498" x2="1722" y1="297.8983" y2="297.8983"/></g><!--class Kurve--><g id="elem_Kurve"><rect codeLine="35" fill="#F1F1F1" height="64.4883" id="Kurve" rx="2.5" ry="2.5" style="stroke:#181818;stroke-width:0.5;" width="166" x="498" y="92.19"/><ellipse cx="557.25" cy="108.19" fill="#ADD1B2" rx="11" ry="11" style="stroke:#181818;stroke-width:1.0;"/><path d="M559.7231,114.3331 Q559.1421,114.6319 558.5029,114.7813 Q557.8638,114.9307 557.1582,114.9307 Q554.6514,114.9307 553.3315,113.2789 Q552.0117,111.627 552.0117,108.5059 Q552.0117,105.3765 553.3315,103.7247 Q554.6514,102.0728 557.1582,102.0728 Q557.8638,102.0728 558.5112,102.2222 Q559.1587,102.3716 559.7231,102.6705 L559.7231,105.3931 Q559.0923,104.8121 558.4988,104.5423 Q557.9053,104.2725 557.2744,104.2725 Q555.9297,104.2725 555.2449,105.3392 Q554.5601,106.4058 554.5601,108.5059 Q554.5601,110.5977 555.2449,111.6644 Q555.9297,112.731 557.2744,112.731 Q557.9053,112.731 558.4988,112.4612 Q559.0923,112.1915 559.7231,111.6104 Z " fill="#000000"/><text fill="#000000" font-family="sans-serif" font-size="14" lengthAdjust="spacing" textLength="39" x="577.75" y="113.481">Kurve</text><line style="stroke:#181818;stroke-width:0.5;" x1="499" x2="663" y1="124.19" y2="124.19"/><ellipse cx="509" cy="137.9341" fill="none" rx="3" ry="3" style="stroke:#038048;stroke-width:1.0;"/><text fill="#000000" font-family="sans-serif" font-size="14" lengthAdjust="spacing" textLength="140" x="518" y="141.7252">linje : KoordinatListe</text><line style="stroke:#181818;stroke-width:0.5;" x1="499" x2="663" y1="148.6783" y2="148.6783"/></g><!--class Omraade--><g id="elem_Omraade"><rect codeLine="39" fill="#F1F1F1" height="80.9766" id="Omraade" rx="2.5" ry="2.5" style="stroke:#181818;stroke-width:0.5;" width="117" x="1758.5" y="233.17"/><ellipse cx="1783.4" cy="249.17" fill="#ADD1B2" rx="11" ry="11" style="stroke:#181818;stroke-width:1.0;"/><path d="M1785.8731,255.3131 Q1785.2921,255.6119 1784.6529,255.7613 Q1784.0138,255.9107 1783.3082,255.9107 Q1780.8014,255.9107 1779.4815,254.2589 Q1778.1617,252.607 1778.1617,249.4859 Q1778.1617,246.3565 1779.4815,244.7047 Q1780.8014,243.0528 1783.3082,243.0528 Q1784.0138,243.0528 1784.6612,243.2022 Q1785.3087,243.3516 1785.8731,243.6505 L1785.8731,246.3731 Q1785.2423,245.7921 1784.6488,245.5223 Q1784.0553,245.2525 1783.4244,245.2525 Q1782.0797,245.2525 1781.3949,246.3192 Q1780.7101,247.3858 1780.7101,249.4859 Q1780.7101,251.5777 1781.3949,252.6444 Q1782.0797,253.711 1783.4244,253.711 Q1784.0553,253.711 1784.6488,253.4412 Q1785.2423,253.1715 1785.8731,252.5904 Z " fill="#000000"/><text fill="#000000" font-family="sans-serif" font-size="14" lengthAdjust="spacing" textLength="63" x="1799.6" y="254.461">Omraade</text><line style="stroke:#181818;stroke-width:0.5;" x1="1759.5" x2="1874.5" y1="265.17" y2="265.17"/><ellipse cx="1769.5" cy="278.9141" fill="none" rx="3" ry="3" style="stroke:#038048;stroke-width:1.0;"/><text fill="#000000" font-family="sans-serif" font-size="14" lengthAdjust="spacing" textLength="91" x="1778.5" y="282.7052">punkt : Punkt</text><ellipse cx="1769.5" cy="295.4024" fill="none" rx="3" ry="3" style="stroke:#038048;stroke-width:1.0;"/><text fill="#000000" font-family="sans-serif" font-size="14" lengthAdjust="spacing" textLength="75" x="1778.5" y="299.1934">flate : Flate</text><line style="stroke:#181818;stroke-width:0.5;" x1="1759.5" x2="1874.5" y1="306.1466" y2="306.1466"/></g><!--class OmraadeListe--><g id="elem_OmraadeListe"><rect codeLine="43" fill="#F1F1F1" height="64.4883" id="OmraadeListe" rx="2.5" ry="2.5" style="stroke:#181818;stroke-width:0.5;" width="139" x="1910.5" y="241.41"/><ellipse cx="1931.35" cy="257.41" fill="#ADD1B2" rx="11" ry="11" style="stroke:#181818;stroke-width:1.0;"/><path d="M1933.8231,263.5531 Q1933.2421,263.8519 1932.6029,264.0013 Q1931.9638,264.1507 1931.2582,264.1507 Q1928.7514,264.1507 1927.4315,262.4989 Q1926.1117,260.847 1926.1117,257.7259 Q1926.1117,254.5965 1927.4315,252.9447 Q1928.7514,251.2928 1931.2582,251.2928 Q1931.9638,251.2928 1932.6112,251.4422 Q1933.2587,251.5916 1933.8231,251.8905 L1933.8231,254.6131 Q1933.1923,254.0321 1932.5988,253.7623 Q1932.0053,253.4925 1931.3744,253.4925 Q1930.0297,253.4925 1929.3449,254.5592 Q1928.6601,255.6258 1928.6601,257.7259 Q1928.6601,259.8177 1929.3449,260.8844 Q1930.0297,261.951 1931.3744,261.951 Q1932.0053,261.951 1932.5988,261.6812 Q1933.1923,261.4115 1933.8231,260.8304 Z " fill="#000000"/><text fill="#000000" font-family="sans-serif" font-size="14" lengthAdjust="spacing" textLength="94" x="1946.65" y="262.701">OmraadeListe</text><line style="stroke:#181818;stroke-width:0.5;" x1="1911.5" x2="2048.5" y1="273.41" y2="273.41"/><ellipse cx="1921.5" cy="287.1541" fill="none" rx="3" ry="3" style="stroke:#038048;stroke-width:1.0;"/><text fill="#000000" font-family="sans-serif" font-size="14" lengthAdjust="spacing" textLength="113" x="1930.5" y="290.9452">liste : Omraade[]</text><line style="stroke:#181818;stroke-width:0.5;" x1="1911.5" x2="2048.5" y1="297.8983" y2="297.8983"/></g><!--class Punkt--><g id="elem_Punkt"><rect codeLine="46" fill="#F1F1F1" height="64.4883" id="Punkt" rx="2.5" ry="2.5" style="stroke:#181818;stroke-width:0.5;" width="164" x="699" y="92.19"/><ellipse cx="757.25" cy="108.19" fill="#ADD1B2" rx="11" ry="11" style="stroke:#181818;stroke-width:1.0;"/><path d="M759.7231,114.3331 Q759.1421,114.6319 758.5029,114.7813 Q757.8638,114.9307 757.1582,114.9307 Q754.6514,114.9307 753.3315,113.2789 Q752.0117,111.627 752.0117,108.5059 Q752.0117,105.3765 753.3315,103.7247 Q754.6514,102.0728 757.1582,102.0728 Q757.8638,102.0728 758.5112,102.2222 Q759.1587,102.3716 759.7231,102.6705 L759.7231,105.3931 Q759.0923,104.8121 758.4988,104.5423 Q757.9053,104.2725 757.2744,104.2725 Q755.9297,104.2725 755.2449,105.3392 Q754.5601,106.4058 754.5601,108.5059 Q754.5601,110.5977 755.2449,111.6644 Q755.9297,112.731 757.2744,112.731 Q757.9053,112.731 758.4988,112.4612 Q759.0923,112.1915 759.7231,111.6104 Z " fill="#000000"/><text fill="#000000" font-family="sans-serif" font-size="14" lengthAdjust="spacing" textLength="39" x="777.75" y="113.481">Punkt</text><line style="stroke:#181818;stroke-width:0.5;" x1="700" x2="862" y1="124.19" y2="124.19"/><ellipse cx="710" cy="137.9341" fill="none" rx="3" ry="3" style="stroke:#038048;stroke-width:1.0;"/><text fill="#000000" font-family="sans-serif" font-size="14" lengthAdjust="spacing" textLength="138" x="719" y="141.7252">posisjon : Koordinat</text><line style="stroke:#181818;stroke-width:0.5;" x1="700" x2="862" y1="148.6783" y2="148.6783"/></g><!--class PunktListe--><g id="elem_PunktListe"><rect codeLine="50" fill="#F1F1F1" height="64.4883" id="PunktListe" rx="2.5" ry="2.5" style="stroke:#181818;stroke-width:0.5;" width="115" x="2084.5" y="241.41"/><ellipse cx="2105.35" cy="257.41" fill="#ADD1B2" rx="11" ry="11" style="stroke:#181818;stroke-width:1.0;"/><path d="M2107.8231,263.5531 Q2107.2421,263.8519 2106.6029,264.0013 Q2105.9638,264.1507 2105.2582,264.1507 Q2102.7514,264.1507 2101.4315,262.4989 Q2100.1117,260.847 2100.1117,257.7259 Q2100.1117,254.5965 2101.4315,252.9447 Q2102.7514,251.2928 2105.2582,251.2928 Q2105.9638,251.2928 2106.6112,251.4422 Q2107.2587,251.5916 2107.8231,251.8905 L2107.8231,254.6131 Q2107.1923,254.0321 2106.5988,253.7623 Q2106.0053,253.4925 2105.3744,253.4925 Q2104.0297,253.4925 2103.3449,254.5592 Q2102.6601,255.6258 2102.6601,257.7259 Q2102.6601,259.8177 2103.3449,260.8844 Q2104.0297,261.951 2105.3744,261.951 Q2106.0053,261.951 2106.5988,261.6812 Q2107.1923,261.4115 2107.8231,260.8304 Z " fill="#000000"/><text fill="#000000" font-family="sans-serif" font-size="14" lengthAdjust="spacing" textLength="70" x="2120.65" y="262.701">PunktListe</text><line style="stroke:#181818;stroke-width:0.5;" x1="2085.5" x2="2198.5" y1="273.41" y2="273.41"/><ellipse cx="2095.5" cy="287.1541" fill="none" rx="3" ry="3" style="stroke:#038048;stroke-width:1.0;"/><text fill="#000000" font-family="sans-serif" font-size="14" lengthAdjust="spacing" textLength="89" x="2104.5" y="290.9452">liste : Punkt[]</text><line style="stroke:#181818;stroke-width:0.5;" x1="2085.5" x2="2198.5" y1="297.8983" y2="297.8983"/></g><!--class Ring--><g id="elem_Ring"><rect codeLine="53" fill="#F1F1F1" height="64.4883" id="Ring" rx="2.5" ry="2.5" style="stroke:#181818;stroke-width:0.5;" width="218" x="1501" y="374.14"/><ellipse cx="1590.25" cy="390.14" fill="#ADD1B2" rx="11" ry="11" style="stroke:#181818;stroke-width:1.0;"/><path d="M1592.7231,396.2831 Q1592.1421,396.5819 1591.5029,396.7313 Q1590.8638,396.8807 1590.1582,396.8807 Q1587.6514,396.8807 1586.3315,395.2289 Q1585.0117,393.577 1585.0117,390.4559 Q1585.0117,387.3265 1586.3315,385.6747 Q1587.6514,384.0228 1590.1582,384.0228 Q1590.8638,384.0228 1591.5112,384.1722 Q1592.1587,384.3216 1592.7231,384.6205 L1592.7231,387.3431 Q1592.0923,386.7621 1591.4988,386.4923 Q1590.9053,386.2225 1590.2744,386.2225 Q1588.9297,386.2225 1588.2449,387.2892 Q1587.5601,388.3558 1587.5601,390.4559 Q1587.5601,392.5477 1588.2449,393.6144 Q1588.9297,394.681 1590.2744,394.681 Q1590.9053,394.681 1591.4988,394.4112 Q1592.0923,394.1415 1592.7231,393.5604 Z " fill="#000000"/><text fill="#000000" font-family="sans-serif" font-size="14" lengthAdjust="spacing" textLength="31" x="1610.75" y="395.431">Ring</text><line style="stroke:#181818;stroke-width:0.5;" x1="1502" x2="1718" y1="406.14" y2="406.14"/><ellipse cx="1512" cy="419.8841" fill="none" rx="3" ry="3" style="stroke:#038048;stroke-width:1.0;"/><text fill="#000000" font-family="sans-serif" font-size="14" lengthAdjust="spacing" textLength="192" x="1521" y="423.6752">lukketKurve : KoordinatListe</text><line style="stroke:#181818;stroke-width:0.5;" x1="1502" x2="1718" y1="430.6283" y2="430.6283"/></g><!--class RingListe--><g id="elem_RingListe"><rect codeLine="56" fill="#F1F1F1" height="64.4883" id="RingListe" rx="2.5" ry="2.5" style="stroke:#181818;stroke-width:0.5;" width="107" x="1754.5" y="374.14"/><ellipse cx="1775.35" cy="390.14" fill="#ADD1B2" rx="11" ry="11" style="stroke:#181818;stroke-width:1.0;"/><path d="M1777.8231,396.2831 Q1777.2421,396.5819 1776.6029,396.7313 Q1775.9638,396.8807 1775.2582,396.8807 Q1772.7514,396.8807 1771.4315,395.2289 Q1770.1117,393.577 1770.1117,390.4559 Q1770.1117,387.3265 1771.4315,385.6747 Q1772.7514,384.0228 1775.2582,384.0228 Q1775.9638,384.0228 1776.6112,384.1722 Q1777.2587,384.3216 1777.8231,384.6205 L1777.8231,387.3431 Q1777.1923,386.7621 1776.5988,386.4923 Q1776.0053,386.2225 1775.3744,386.2225 Q1774.0297,386.2225 1773.3449,387.2892 Q1772.6601,388.3558 1772.6601,390.4559 Q1772.6601,392.5477 1773.3449,393.6144 Q1774.0297,394.681 1775.3744,394.681 Q1776.0053,394.681 1776.5988,394.4112 Q1777.1923,394.1415 1777.8231,393.5604 Z " fill="#000000"/><text fill="#000000" font-family="sans-serif" font-size="14" lengthAdjust="spacing" textLength="62" x="1790.65" y="395.431">RingListe</text><line style="stroke:#181818;stroke-width:0.5;" x1="1755.5" x2="1860.5" y1="406.14" y2="406.14"/><ellipse cx="1765.5" cy="419.8841" fill="none" rx="3" ry="3" style="stroke:#038048;stroke-width:1.0;"/><text fill="#000000" font-family="sans-serif" font-size="14" lengthAdjust="spacing" textLength="81" x="1774.5" y="423.6752">liste : Ring[]</text><line style="stroke:#181818;stroke-width:0.5;" x1="1755.5" x2="1860.5" y1="430.6283" y2="430.6283"/></g><!--reverse link Bbox to Geometri--><g id="link_Bbox_Geometri"><path codeLine="6" d="M171.94,76.21 C192.56,63.77 216.06,52.1 239.5,45.7 C373.27,9.19 727.62,18.06 863.5,45.7 C907.38,54.63 953.76,74.31 989.16,91.76 " fill="none" id="Bbox-backto-Geometri" style="stroke:#181818;stroke-width:1.0;"/><polygon fill="#181818" points="161.16,83.59,168.3682,83.7944,171.3293,77.2193,164.1211,77.0149,161.16,83.59" style="stroke:#181818;stroke-width:1.0;"/></g><!--reverse link Flate to Geometri--><g id="link_Flate_Geometri"><path codeLine="14" d="M422.96,76.69 C445.83,64.06 471.87,52.15 497.5,45.7 C655.25,6 704.1,13.27 863.5,45.7 C907.38,54.63 953.76,74.31 989.16,91.76 " fill="none" id="Flate-backto-Geometri" style="stroke:#181818;stroke-width:1.0;"/><polygon fill="#181818" points="411.96,83.55,419.1538,84.0491,422.3814,77.6006,415.1875,77.1015,411.96,83.55" style="stroke:#181818;stroke-width:1.0;"/></g><!--reverse link KoordinatsystemKode to Kode--><g id="link_KoordinatsystemKode_Kode"><path codeLine="31" d="M1431.16,124.43 C1438.16,124.43 1445.16,124.43 1452.16,124.43 " fill="none" id="KoordinatsystemKode-backto-Kode" style="stroke:#181818;stroke-width:1.0;"/><polygon fill="#181818" points="1418.25,124.43,1424.25,128.43,1430.25,124.43,1424.25,120.43,1418.25,124.43" style="stroke:#181818;stroke-width:1.0;"/></g><!--reverse link Kurve to Geometri--><g id="link_Kurve_Geometri"><path codeLine="38" d="M628.49,83.27 C648.67,68.37 673.34,53.35 698.5,45.7 C768.66,24.37 791.64,31.08 863.5,45.7 C907.38,54.63 953.76,74.31 989.16,91.76 " fill="none" id="Kurve-backto-Geometri" style="stroke:#181818;stroke-width:1.0;"/><polygon fill="#181818" points="618.45,91.72,625.6455,91.2457,627.9752,84.4213,620.7797,84.8956,618.45,91.72" style="stroke:#181818;stroke-width:1.0;"/></g><!--reverse link Punkt to Geometri--><g id="link_Punkt_Geometri"><path codeLine="49" d="M877.28,124.43 C884.02,124.43 890.77,124.43 897.51,124.43 " fill="none" id="Punkt-backto-Geometri" style="stroke:#181818;stroke-width:1.0;"/><polygon fill="#181818" points="864.44,124.43,870.44,128.43,876.44,124.43,870.44,120.43,864.44,124.43" style="stroke:#181818;stroke-width:1.0;"/></g><!--SRC=[VLBDJiGW4BxtAJXhV86zwK5DraIp1o_60xkC6xOjOu0sMys-kzEXK6nHBeJvVkQ3uT18vyJT7i_YknAqhWqe2wzWdBSWDcABQ9KsqWSKeRVmY30im4l57bStuW6m1MzrTKZMJzfvYFuD7pOClBsJCF3k6pbpjA4Cj_tHKWoZpP7eEzhO9p06NoAGM_1Pv-1wCGWZMP8eZBmwNj8D96ZpQuVA5XKaTSAY_4m2XTs-YSaNvw_vlF8evarebhcGY6INgbIdj-74Voh_xphpylwTxJE9EVsIXBbH6cQjP_FSMYbLqdzsflQaVndtKFhWgKwpIbqdNJ7lX6KPsIxrGAVT2StY4mVEEY7NYtqOoRgCtp1nkhe67svTU8vPK7GU0JR-0G00]--></g></svg>