<?xml version="1.0" encoding="us-ascii" standalone="no"?><svg xmlns="http://www.w3.org/2000/svg" xmlns:xlink="http://www.w3.org/1999/xlink" contentStyleType="text/css" height="111px" preserveAspectRatio="none" style="width:348px;height:111px;background:#FFFFFF;" version="1.1" viewBox="0 0 348 111" width="348px" zoomAndPan="magnify"><defs/><g><!--class Kode--><g id="elem_Kode"><rect codeLine="2" fill="#F1F1F1" height="97.4648" id="Kode" rx="2.5" ry="2.5" style="stroke:#181818;stroke-width:0.5;" width="188" x="7" y="7"/><ellipse cx="79.25" cy="23" fill="#ADD1B2" rx="11" ry="11" style="stroke:#181818;stroke-width:1.0;"/><path d="M81.7231,29.1431 Q81.1421,29.4419 80.5029,29.5913 Q79.8638,29.7407 79.1582,29.7407 Q76.6514,29.7407 75.3315,28.0889 Q74.0117,26.437 74.0117,23.3159 Q74.0117,20.1865 75.3315,18.5347 Q76.6514,16.8828 79.1582,16.8828 Q79.8638,16.8828 80.5112,17.0322 Q81.1587,17.1816 81.7231,17.4805 L81.7231,20.2031 Q81.0923,19.6221 80.4988,19.3523 Q79.9053,19.0825 79.2744,19.0825 Q77.9297,19.0825 77.2449,20.1492 Q76.5601,21.2158 76.5601,23.3159 Q76.5601,25.4077 77.2449,26.4744 Q77.9297,27.541 79.2744,27.541 Q79.9053,27.541 80.4988,27.2712 Q81.0923,27.0015 81.7231,26.4204 Z " fill="#000000"/><text fill="#000000" font-family="sans-serif" font-size="14" lengthAdjust="spacing" textLength="35" x="99.75" y="28.291">Kode</text><line style="stroke:#181818;stroke-width:0.5;" x1="8" x2="194" y1="39" y2="39"/><ellipse cx="18" cy="52.7441" fill="none" rx="3" ry="3" style="stroke:#038048;stroke-width:1.0;"/><text fill="#000000" font-family="sans-serif" font-size="14" lengthAdjust="spacing" textLength="120" x="27" y="56.5352">kodeverdi : string</text><ellipse cx="18" cy="69.2324" fill="none" rx="3" ry="3" style="stroke:#038048;stroke-width:1.0;"/><text fill="#000000" font-family="sans-serif" font-size="14" lengthAdjust="spacing" textLength="162" x="27" y="73.0234">kodebeskrivelse : string</text><ellipse cx="18" cy="85.7207" fill="none" rx="3" ry="3" style="stroke:#038048;stroke-width:1.0;"/><text fill="#000000" font-family="sans-serif" font-size="14" lengthAdjust="spacing" textLength="125" x="27" y="89.5117">erGyldig : boolean</text><line style="stroke:#181818;stroke-width:0.5;" x1="8" x2="194" y1="96.4648" y2="96.4648"/></g><!--class KodeListe--><g id="elem_KodeListe"><rect codeLine="7" fill="#F1F1F1" height="64.4883" id="KodeListe" rx="2.5" ry="2.5" style="stroke:#181818;stroke-width:0.5;" width="111" x="230.5" y="23.48"/><ellipse cx="251.35" cy="39.48" fill="#ADD1B2" rx="11" ry="11" style="stroke:#181818;stroke-width:1.0;"/><path d="M253.8231,45.6231 Q253.2421,45.9219 252.6029,46.0713 Q251.9638,46.2207 251.2582,46.2207 Q248.7514,46.2207 247.4315,44.5689 Q246.1117,42.917 246.1117,39.7959 Q246.1117,36.6665 247.4315,35.0147 Q248.7514,33.3628 251.2582,33.3628 Q251.9638,33.3628 252.6112,33.5122 Q253.2587,33.6616 253.8231,33.9605 L253.8231,36.6831 Q253.1923,36.1021 252.5988,35.8323 Q252.0053,35.5625 251.3744,35.5625 Q250.0297,35.5625 249.3449,36.6292 Q248.6601,37.6958 248.6601,39.7959 Q248.6601,41.8877 249.3449,42.9544 Q250.0297,44.021 251.3744,44.021 Q252.0053,44.021 252.5988,43.7512 Q253.1923,43.4815 253.8231,42.9004 Z " fill="#000000"/><text fill="#000000" font-family="sans-serif" font-size="14" lengthAdjust="spacing" textLength="66" x="266.65" y="44.771">KodeListe</text><line style="stroke:#181818;stroke-width:0.5;" x1="231.5" x2="340.5" y1="55.48" y2="55.48"/><ellipse cx="241.5" cy="69.2241" fill="none" rx="3" ry="3" style="stroke:#038048;stroke-width:1.0;"/><text fill="#000000" font-family="sans-serif" font-size="14" lengthAdjust="spacing" textLength="85" x="250.5" y="73.0152">liste : Kode[]</text><line style="stroke:#181818;stroke-width:0.5;" x1="231.5" x2="340.5" y1="79.9683" y2="79.9683"/></g><!--SRC=[Iyv9B2vMyCvFILMevb800kri8BiijIWbKy5AeRYaA3Cl7I6Ub5gSNPHPbffJd8eccrhaNfcJafaE54xApyz9JSpZgkLAXXlkarbS0hSX1yon0aj4nmBL0G00]--></g></svg>