<?xml version="1.0" encoding="us-ascii" standalone="no"?><svg xmlns="http://www.w3.org/2000/svg" xmlns:xlink="http://www.w3.org/1999/xlink" contentStyleType="text/css" height="459px" preserveAspectRatio="none" style="width:715px;height:459px;background:#FFFFFF;" version="1.1" viewBox="0 0 715 459" width="715px" zoomAndPan="magnify"><defs/><g><!--class Kvittering--><g id="elem_Kvittering"><rect codeLine="2" fill="#F1F1F1" height="113.9531" id="Kvittering" rx="2.5" ry="2.5" style="stroke:#181818;stroke-width:0.5;" width="147" x="110" y="180.95"/><ellipse cx="147.05" cy="196.95" fill="#ADD1B2" rx="11" ry="11" style="stroke:#181818;stroke-width:1.0;"/><path d="M149.5231,203.0931 Q148.9421,203.3919 148.3029,203.5413 Q147.6638,203.6907 146.9582,203.6907 Q144.4514,203.6907 143.1315,202.0389 Q141.8117,200.387 141.8117,197.2659 Q141.8117,194.1365 143.1315,192.4847 Q144.4514,190.8328 146.9582,190.8328 Q147.6638,190.8328 148.3112,190.9822 Q148.9587,191.1316 149.5231,191.4305 L149.5231,194.1531 Q148.8923,193.5721 148.2988,193.3023 Q147.7053,193.0325 147.0744,193.0325 Q145.7297,193.0325 145.0449,194.0992 Q144.3601,195.1658 144.3601,197.2659 Q144.3601,199.3577 145.0449,200.4244 Q145.7297,201.491 147.0744,201.491 Q147.7053,201.491 148.2988,201.2212 Q148.8923,200.9515 149.5231,200.3704 Z " fill="#000000"/><text fill="#000000" font-family="sans-serif" font-size="14" lengthAdjust="spacing" textLength="66" x="165.95" y="202.241">Kvittering</text><line style="stroke:#181818;stroke-width:0.5;" x1="111" x2="256" y1="212.95" y2="212.95"/><ellipse cx="121" cy="226.6941" fill="none" rx="3" ry="3" style="stroke:#038048;stroke-width:1.0;"/><text fill="#000000" font-family="sans-serif" font-size="14" lengthAdjust="spacing" textLength="95" x="130" y="230.4852">status : Status</text><ellipse cx="121" cy="243.1824" fill="none" rx="3" ry="3" style="stroke:#038048;stroke-width:1.0;"/><text fill="#000000" font-family="sans-serif" font-size="14" lengthAdjust="spacing" textLength="108" x="130" y="246.9734">melding : string</text><ellipse cx="121" cy="259.6707" fill="none" rx="3" ry="3" style="stroke:#038048;stroke-width:1.0;"/><text fill="#000000" font-family="sans-serif" font-size="14" lengthAdjust="spacing" textLength="99" x="130" y="263.4617">tiltakid : string</text><ellipse cx="121" cy="276.159" fill="none" rx="3" ry="3" style="stroke:#038048;stroke-width:1.0;"/><text fill="#000000" font-family="sans-serif" font-size="14" lengthAdjust="spacing" textLength="121" x="130" y="279.95">byggIdent : string</text><line style="stroke:#181818;stroke-width:0.5;" x1="111" x2="256" y1="286.9031" y2="286.9031"/></g><!--class KvitteringMatrikkel--><g id="elem_KvitteringMatrikkel"><rect codeLine="8" fill="#F1F1F1" height="113.9531" id="KvitteringMatrikkel" rx="2.5" ry="2.5" style="stroke:#181818;stroke-width:0.5;" width="215" x="299" y="7"/><ellipse cx="338.3" cy="23" fill="#ADD1B2" rx="11" ry="11" style="stroke:#181818;stroke-width:1.0;"/><path d="M340.7731,29.1431 Q340.1921,29.4419 339.5529,29.5913 Q338.9138,29.7407 338.2082,29.7407 Q335.7014,29.7407 334.3815,28.0889 Q333.0617,26.437 333.0617,23.3159 Q333.0617,20.1865 334.3815,18.5347 Q335.7014,16.8828 338.2082,16.8828 Q338.9138,16.8828 339.5612,17.0322 Q340.2087,17.1816 340.7731,17.4805 L340.7731,20.2031 Q340.1423,19.6221 339.5488,19.3523 Q338.9553,19.0825 338.3244,19.0825 Q336.9797,19.0825 336.2949,20.1492 Q335.6101,21.2158 335.6101,23.3159 Q335.6101,25.4077 336.2949,26.4744 Q336.9797,27.541 338.3244,27.541 Q338.9553,27.541 339.5488,27.2712 Q340.1423,27.0015 340.7731,26.4204 Z " fill="#000000"/><text fill="#000000" font-family="sans-serif" font-size="14" lengthAdjust="spacing" textLength="129" x="357.7" y="28.291">KvitteringMatrikkel</text><line style="stroke:#181818;stroke-width:0.5;" x1="300" x2="513" y1="39" y2="39"/><ellipse cx="310" cy="52.7441" fill="none" rx="3" ry="3" style="stroke:#038048;stroke-width:1.0;"/><text fill="#000000" font-family="sans-serif" font-size="14" lengthAdjust="spacing" textLength="189" x="319" y="56.5352">saksnummer : Saksnummer</text><ellipse cx="310" cy="69.2324" fill="none" rx="3" ry="3" style="stroke:#038048;stroke-width:1.0;"/><text fill="#000000" font-family="sans-serif" font-size="14" lengthAdjust="spacing" textLength="173" x="319" y="73.0234">status : OverordnetStatus</text><ellipse cx="310" cy="85.7207" fill="none" rx="3" ry="3" style="stroke:#038048;stroke-width:1.0;"/><text fill="#000000" font-family="sans-serif" font-size="14" lengthAdjust="spacing" textLength="108" x="319" y="89.5117">melding : string</text><ellipse cx="310" cy="102.209" fill="none" rx="3" ry="3" style="stroke:#038048;stroke-width:1.0;"/><text fill="#000000" font-family="sans-serif" font-size="14" lengthAdjust="spacing" textLength="167" x="319" y="106">kvitteringer : Kvittering[]</text><line style="stroke:#181818;stroke-width:0.5;" x1="300" x2="513" y1="112.9531" y2="112.9531"/></g><!--class Saksnummer--><g id="elem_Saksnummer"><rect codeLine="23" fill="#F1F1F1" height="80.9766" id="Saksnummer" rx="2.5" ry="2.5" style="stroke:#181818;stroke-width:0.5;" width="229" x="292" y="197.44"/><ellipse cx="357.75" cy="213.44" fill="#ADD1B2" rx="11" ry="11" style="stroke:#181818;stroke-width:1.0;"/><path d="M360.2231,219.5831 Q359.6421,219.8819 359.0029,220.0313 Q358.3638,220.1807 357.6582,220.1807 Q355.1514,220.1807 353.8315,218.5289 Q352.5117,216.877 352.5117,213.7559 Q352.5117,210.6265 353.8315,208.9747 Q355.1514,207.3228 357.6582,207.3228 Q358.3638,207.3228 359.0112,207.4722 Q359.6587,207.6216 360.2231,207.9205 L360.2231,210.6431 Q359.5923,210.0621 358.9988,209.7923 Q358.4053,209.5225 357.7744,209.5225 Q356.4297,209.5225 355.7449,210.5892 Q355.0601,211.6558 355.0601,213.7559 Q355.0601,215.8477 355.7449,216.9144 Q356.4297,217.981 357.7744,217.981 Q358.4053,217.981 358.9988,217.7112 Q359.5923,217.4415 360.2231,216.8604 Z " fill="#000000"/><text fill="#000000" font-family="sans-serif" font-size="14" lengthAdjust="spacing" textLength="89" x="378.25" y="218.731">Saksnummer</text><line style="stroke:#181818;stroke-width:0.5;" x1="293" x2="520" y1="229.44" y2="229.44"/><ellipse cx="303" cy="243.1841" fill="none" rx="3" ry="3" style="stroke:#038048;stroke-width:1.0;"/><text fill="#000000" font-family="sans-serif" font-size="14" lengthAdjust="spacing" textLength="113" x="312" y="246.9752">saksaar : integer</text><ellipse cx="303" cy="259.6724" fill="none" rx="3" ry="3" style="stroke:#038048;stroke-width:1.0;"/><text fill="#000000" font-family="sans-serif" font-size="14" lengthAdjust="spacing" textLength="203" x="312" y="263.4634">sakssekvensnummer : integer</text><line style="stroke:#181818;stroke-width:0.5;" x1="293" x2="520" y1="270.4166" y2="270.4166"/></g><!--class OverordnetStatus--><g id="elem_OverordnetStatus"><rect codeLine="19" fill="#F1F1F1" height="80.9766" id="OverordnetStatus" rx="2.5" ry="2.5" style="stroke:#181818;stroke-width:0.5;" width="152" x="556.5" y="197.44"/><ellipse cx="571.5" cy="213.44" fill="#EB937F" rx="11" ry="11" style="stroke:#181818;stroke-width:1.0;"/><path d="M575.1143,219.94 L567.3945,219.94 L567.3945,207.5469 L575.1143,207.5469 L575.1143,209.7051 L569.8433,209.7051 L569.8433,212.378 L574.6162,212.378 L574.6162,214.5362 L569.8433,214.5362 L569.8433,217.7818 L575.1143,217.7818 Z " fill="#000000"/><text fill="#000000" font-family="sans-serif" font-size="14" lengthAdjust="spacing" textLength="120" x="585.5" y="218.731">OverordnetStatus</text><line style="stroke:#181818;stroke-width:0.5;" x1="557.5" x2="707.5" y1="229.44" y2="229.44"/><text fill="#000000" font-family="sans-serif" font-size="14" lengthAdjust="spacing" textLength="53" x="562.5" y="246.9752">ok = ok</text><text fill="#000000" font-family="sans-serif" font-size="14" lengthAdjust="spacing" textLength="87" x="562.5" y="263.4634">feilet = feilet</text><line style="stroke:#181818;stroke-width:0.5;" x1="557.5" x2="707.5" y1="270.4166" y2="270.4166"/></g><!--class Status--><g id="elem_Status"><rect codeLine="27" fill="#F1F1F1" height="97.4648" id="Status" rx="2.5" ry="2.5" style="stroke:#181818;stroke-width:0.5;" width="353" x="7" y="354.91"/><ellipse cx="158.25" cy="370.91" fill="#EB937F" rx="11" ry="11" style="stroke:#181818;stroke-width:1.0;"/><path d="M161.8643,377.41 L154.1445,377.41 L154.1445,365.0169 L161.8643,365.0169 L161.8643,367.1751 L156.5933,367.1751 L156.5933,369.848 L161.3662,369.848 L161.3662,372.0062 L156.5933,372.0062 L156.5933,375.2518 L161.8643,375.2518 Z " fill="#000000"/><text fill="#000000" font-family="sans-serif" font-size="14" lengthAdjust="spacing" textLength="42" x="178.75" y="376.201">Status</text><line style="stroke:#181818;stroke-width:0.5;" x1="8" x2="359" y1="386.91" y2="386.91"/><text fill="#000000" font-family="sans-serif" font-size="14" lengthAdjust="spacing" textLength="129" x="13" y="404.4452">velykket = velykket</text><text fill="#000000" font-family="sans-serif" font-size="14" lengthAdjust="spacing" textLength="87" x="13" y="420.9334">feilet = feilet</text><text fill="#000000" font-family="sans-serif" font-size="14" lengthAdjust="spacing" textLength="341" x="13" y="437.4217">skalIkkeMatrikkelfoeres = skalIkkeMatrikkelfoeres</text><line style="stroke:#181818;stroke-width:0.5;" x1="8" x2="359" y1="444.3748" y2="444.3748"/></g><!--link KvitteringMatrikkel to Saksnummer--><g id="link_KvitteringMatrikkel_Saksnummer"><path codeLine="14" d="M406.5,121.28 C406.5,146.06 406.5,174.59 406.5,197.11 " fill="none" id="KvitteringMatrikkel-Saksnummer" style="stroke:#181818;stroke-width:1.0;"/></g><!--link KvitteringMatrikkel to OverordnetStatus--><g id="link_KvitteringMatrikkel_OverordnetStatus"><path codeLine="15" d="M480.5,121.28 C513.07,146.06 550.57,174.59 580.17,197.11 " fill="none" id="KvitteringMatrikkel-OverordnetStatus" style="stroke:#181818;stroke-width:1.0;"/></g><!--link KvitteringMatrikkel to Kvittering--><g id="link_KvitteringMatrikkel_Kvittering"><path codeLine="16" d="M333.48,121.28 C308.84,140.28 281.34,161.49 256.68,180.5 " fill="none" id="KvitteringMatrikkel-Kvittering" style="stroke:#181818;stroke-width:1.0;"/></g><!--link Kvittering to Status--><g id="link_Kvittering_Status"><path codeLine="17" d="M183.5,295.27 C183.5,314.6 183.5,336.04 183.5,354.64 " fill="none" id="Kvittering-Status" style="stroke:#181818;stroke-width:1.0;"/></g><!--SRC=[XP1D2i8m48NtFKNsqWi87a14NBWK5x6Tbf0qXSnOADAxEsaqgVt1BCBavINVcocCH1IdJX61KxOMhqpmsY59UgBOY-jO1B41KthFNY1vSr196P9QbJFvqTVriGHBIH-oOeOxIxxH6apaIetssJJWF3iUPg4k7RZMbHReVpmTOUEVYNsxSw2rA7a-9Myu5X4sV4cUE4P4U9O1SnQ_VSRHQd7WRQmhK0Q8pw68mqnHfpEKqZUhB44TfySoWkx0fWb_3KE8yGFlmFJSXKT-ozKWNaCjpP4TiVMg1GV8feqR9hu1]--></g></svg>