<?xml version="1.0" encoding="us-ascii" standalone="no"?><svg xmlns="http://www.w3.org/2000/svg" xmlns:xlink="http://www.w3.org/1999/xlink" contentStyleType="text/css" height="285px" preserveAspectRatio="none" style="width:638px;height:285px;background:#FFFFFF;" version="1.1" viewBox="0 0 638 285" width="638px" zoomAndPan="magnify"><defs/><g><!--class Kvittering--><g id="elem_Kvittering"><rect codeLine="2" fill="#F1F1F1" height="113.9531" id="Kvittering" rx="2.5" ry="2.5" style="stroke:#181818;stroke-width:0.5;" width="147" x="48" y="7"/><ellipse cx="85.05" cy="23" fill="#ADD1B2" rx="11" ry="11" style="stroke:#181818;stroke-width:1.0;"/><path d="M87.5231,29.1431 Q86.9421,29.4419 86.3029,29.5913 Q85.6638,29.7407 84.9582,29.7407 Q82.4514,29.7407 81.1315,28.0889 Q79.8117,26.437 79.8117,23.3159 Q79.8117,20.1865 81.1315,18.5347 Q82.4514,16.8828 84.9582,16.8828 Q85.6638,16.8828 86.3112,17.0322 Q86.9587,17.1816 87.5231,17.4805 L87.5231,20.2031 Q86.8923,19.6221 86.2988,19.3523 Q85.7053,19.0825 85.0744,19.0825 Q83.7297,19.0825 83.0449,20.1492 Q82.3601,21.2158 82.3601,23.3159 Q82.3601,25.4077 83.0449,26.4744 Q83.7297,27.541 85.0744,27.541 Q85.7053,27.541 86.2988,27.2712 Q86.8923,27.0015 87.5231,26.4204 Z " fill="#000000"/><text fill="#000000" font-family="sans-serif" font-size="14" lengthAdjust="spacing" textLength="66" x="103.95" y="28.291">Kvittering</text><line style="stroke:#181818;stroke-width:0.5;" x1="49" x2="194" y1="39" y2="39"/><ellipse cx="59" cy="52.7441" fill="none" rx="3" ry="3" style="stroke:#038048;stroke-width:1.0;"/><text fill="#000000" font-family="sans-serif" font-size="14" lengthAdjust="spacing" textLength="95" x="68" y="56.5352">status : Status</text><ellipse cx="59" cy="69.2324" fill="none" rx="3" ry="3" style="stroke:#038048;stroke-width:1.0;"/><text fill="#000000" font-family="sans-serif" font-size="14" lengthAdjust="spacing" textLength="108" x="68" y="73.0234">melding : string</text><ellipse cx="59" cy="85.7207" fill="none" rx="3" ry="3" style="stroke:#038048;stroke-width:1.0;"/><text fill="#000000" font-family="sans-serif" font-size="14" lengthAdjust="spacing" textLength="99" x="68" y="89.5117">tiltakid : string</text><ellipse cx="59" cy="102.209" fill="none" rx="3" ry="3" style="stroke:#038048;stroke-width:1.0;"/><text fill="#000000" font-family="sans-serif" font-size="14" lengthAdjust="spacing" textLength="121" x="68" y="106">byggIdent : string</text><line style="stroke:#181818;stroke-width:0.5;" x1="49" x2="194" y1="112.9531" y2="112.9531"/></g><!--class KvitteringMatrikkel--><g id="elem_KvitteringMatrikkel"><rect codeLine="8" fill="#F1F1F1" height="113.9531" id="KvitteringMatrikkel" rx="2.5" ry="2.5" style="stroke:#181818;stroke-width:0.5;" width="215" x="230" y="7"/><ellipse cx="269.3" cy="23" fill="#ADD1B2" rx="11" ry="11" style="stroke:#181818;stroke-width:1.0;"/><path d="M271.7731,29.1431 Q271.1921,29.4419 270.5529,29.5913 Q269.9138,29.7407 269.2082,29.7407 Q266.7014,29.7407 265.3815,28.0889 Q264.0617,26.437 264.0617,23.3159 Q264.0617,20.1865 265.3815,18.5347 Q266.7014,16.8828 269.2082,16.8828 Q269.9138,16.8828 270.5612,17.0322 Q271.2087,17.1816 271.7731,17.4805 L271.7731,20.2031 Q271.1423,19.6221 270.5488,19.3523 Q269.9553,19.0825 269.3244,19.0825 Q267.9797,19.0825 267.2949,20.1492 Q266.6101,21.2158 266.6101,23.3159 Q266.6101,25.4077 267.2949,26.4744 Q267.9797,27.541 269.3244,27.541 Q269.9553,27.541 270.5488,27.2712 Q271.1423,27.0015 271.7731,26.4204 Z " fill="#000000"/><text fill="#000000" font-family="sans-serif" font-size="14" lengthAdjust="spacing" textLength="129" x="288.7" y="28.291">KvitteringMatrikkel</text><line style="stroke:#181818;stroke-width:0.5;" x1="231" x2="444" y1="39" y2="39"/><ellipse cx="241" cy="52.7441" fill="none" rx="3" ry="3" style="stroke:#038048;stroke-width:1.0;"/><text fill="#000000" font-family="sans-serif" font-size="14" lengthAdjust="spacing" textLength="189" x="250" y="56.5352">saksnummer : Saksnummer</text><ellipse cx="241" cy="69.2324" fill="none" rx="3" ry="3" style="stroke:#038048;stroke-width:1.0;"/><text fill="#000000" font-family="sans-serif" font-size="14" lengthAdjust="spacing" textLength="173" x="250" y="73.0234">status : OverordnetStatus</text><ellipse cx="241" cy="85.7207" fill="none" rx="3" ry="3" style="stroke:#038048;stroke-width:1.0;"/><text fill="#000000" font-family="sans-serif" font-size="14" lengthAdjust="spacing" textLength="108" x="250" y="89.5117">melding : string</text><ellipse cx="241" cy="102.209" fill="none" rx="3" ry="3" style="stroke:#038048;stroke-width:1.0;"/><text fill="#000000" font-family="sans-serif" font-size="14" lengthAdjust="spacing" textLength="167" x="250" y="106">kvitteringer : Kvittering[]</text><line style="stroke:#181818;stroke-width:0.5;" x1="231" x2="444" y1="112.9531" y2="112.9531"/></g><!--class OverordnetStatus--><g id="elem_OverordnetStatus"><rect codeLine="14" fill="#F1F1F1" height="80.9766" id="OverordnetStatus" rx="2.5" ry="2.5" style="stroke:#181818;stroke-width:0.5;" width="152" x="479.5" y="23.49"/><ellipse cx="494.5" cy="39.49" fill="#EB937F" rx="11" ry="11" style="stroke:#181818;stroke-width:1.0;"/><path d="M498.1143,45.99 L490.3945,45.99 L490.3945,33.5969 L498.1143,33.5969 L498.1143,35.7551 L492.8433,35.7551 L492.8433,38.428 L497.6162,38.428 L497.6162,40.5862 L492.8433,40.5862 L492.8433,43.8318 L498.1143,43.8318 Z " fill="#000000"/><text fill="#000000" font-family="sans-serif" font-size="14" lengthAdjust="spacing" textLength="120" x="508.5" y="44.781">OverordnetStatus</text><line style="stroke:#181818;stroke-width:0.5;" x1="480.5" x2="630.5" y1="55.49" y2="55.49"/><text fill="#000000" font-family="sans-serif" font-size="14" lengthAdjust="spacing" textLength="53" x="485.5" y="73.0252">ok = ok</text><text fill="#000000" font-family="sans-serif" font-size="14" lengthAdjust="spacing" textLength="87" x="485.5" y="89.5134">feilet = feilet</text><line style="stroke:#181818;stroke-width:0.5;" x1="480.5" x2="630.5" y1="96.4666" y2="96.4666"/></g><!--class Saksnummer--><g id="elem_Saksnummer"><rect codeLine="18" fill="#F1F1F1" height="80.9766" id="Saksnummer" rx="2.5" ry="2.5" style="stroke:#181818;stroke-width:0.5;" width="229" x="7" y="189.2"/><ellipse cx="72.75" cy="205.2" fill="#ADD1B2" rx="11" ry="11" style="stroke:#181818;stroke-width:1.0;"/><path d="M75.2231,211.3431 Q74.6421,211.6419 74.0029,211.7913 Q73.3638,211.9407 72.6582,211.9407 Q70.1514,211.9407 68.8315,210.2889 Q67.5117,208.637 67.5117,205.5159 Q67.5117,202.3865 68.8315,200.7347 Q70.1514,199.0828 72.6582,199.0828 Q73.3638,199.0828 74.0112,199.2322 Q74.6587,199.3816 75.2231,199.6805 L75.2231,202.4031 Q74.5923,201.8221 73.9988,201.5523 Q73.4053,201.2825 72.7744,201.2825 Q71.4297,201.2825 70.7449,202.3492 Q70.0601,203.4158 70.0601,205.5159 Q70.0601,207.6077 70.7449,208.6744 Q71.4297,209.741 72.7744,209.741 Q73.4053,209.741 73.9988,209.4712 Q74.5923,209.2015 75.2231,208.6204 Z " fill="#000000"/><text fill="#000000" font-family="sans-serif" font-size="14" lengthAdjust="spacing" textLength="89" x="93.25" y="210.491">Saksnummer</text><line style="stroke:#181818;stroke-width:0.5;" x1="8" x2="235" y1="221.2" y2="221.2"/><ellipse cx="18" cy="234.9441" fill="none" rx="3" ry="3" style="stroke:#038048;stroke-width:1.0;"/><text fill="#000000" font-family="sans-serif" font-size="14" lengthAdjust="spacing" textLength="113" x="27" y="238.7352">saksaar : integer</text><ellipse cx="18" cy="251.4324" fill="none" rx="3" ry="3" style="stroke:#038048;stroke-width:1.0;"/><text fill="#000000" font-family="sans-serif" font-size="14" lengthAdjust="spacing" textLength="203" x="27" y="255.2234">sakssekvensnummer : integer</text><line style="stroke:#181818;stroke-width:0.5;" x1="8" x2="235" y1="262.1766" y2="262.1766"/></g><!--class Status--><g id="elem_Status"><rect codeLine="22" fill="#F1F1F1" height="97.4648" id="Status" rx="2.5" ry="2.5" style="stroke:#181818;stroke-width:0.5;" width="353" x="271" y="180.96"/><ellipse cx="422.25" cy="196.96" fill="#EB937F" rx="11" ry="11" style="stroke:#181818;stroke-width:1.0;"/><path d="M425.8643,203.46 L418.1445,203.46 L418.1445,191.0669 L425.8643,191.0669 L425.8643,193.2251 L420.5933,193.2251 L420.5933,195.898 L425.3662,195.898 L425.3662,198.0562 L420.5933,198.0562 L420.5933,201.3018 L425.8643,201.3018 Z " fill="#000000"/><text fill="#000000" font-family="sans-serif" font-size="14" lengthAdjust="spacing" textLength="42" x="442.75" y="202.251">Status</text><line style="stroke:#181818;stroke-width:0.5;" x1="272" x2="623" y1="212.96" y2="212.96"/><text fill="#000000" font-family="sans-serif" font-size="14" lengthAdjust="spacing" textLength="129" x="277" y="230.4952">velykket = velykket</text><text fill="#000000" font-family="sans-serif" font-size="14" lengthAdjust="spacing" textLength="87" x="277" y="246.9834">feilet = feilet</text><text fill="#000000" font-family="sans-serif" font-size="14" lengthAdjust="spacing" textLength="341" x="277" y="263.4717">skalIkkeMatrikkelfoeres = skalIkkeMatrikkelfoeres</text><line style="stroke:#181818;stroke-width:0.5;" x1="272" x2="623" y1="270.4248" y2="270.4248"/></g><!--SRC=[XP1D2i8m48NtFKNstg3W0Og82vVY8ZRJ49Aca9aMYdXt9_r9j2fc4MPU7lEzIUqaeZWCXWY2yLhS2y5dXoIfHr6AyrJCOWjEHKyfaA9vLiauajQeZNmRjQuKUChwewWtkAFa5sl19QwqwFksXH3PgTc4EWqGkg0yqFzuDi6ccPbzkN8WuFaVuvOmdHLxlgQw0UE0k9-Bj4gE-Bg1b15bF85EsLb6i0FulDzgM6AymGTm8tzCHAxbro1HGojTnOxqcqq70P1DFrwO-0G0]--></g></svg>