<?xml version="1.0" encoding="us-ascii" standalone="no"?><svg xmlns="http://www.w3.org/2000/svg" xmlns:xlink="http://www.w3.org/1999/xlink" contentStyleType="text/css" height="94px" preserveAspectRatio="none" style="width:403px;height:94px;background:#FFFFFF;" version="1.1" viewBox="0 0 403 94" width="403px" zoomAndPan="magnify"><defs/><g><!--class StatusMatrikkel--><g id="elem_StatusMatrikkel"><rect codeLine="2" fill="#F1F1F1" height="48" id="StatusMatrikkel" rx="2.5" ry="2.5" style="stroke:#181818;stroke-width:0.5;" width="137" x="7" y="23.49"/><ellipse cx="22" cy="39.49" fill="#ADD1B2" rx="11" ry="11" style="stroke:#181818;stroke-width:1.0;"/><path d="M24.4731,45.6331 Q23.8921,45.9319 23.2529,46.0813 Q22.6138,46.2307 21.9082,46.2307 Q19.4014,46.2307 18.0815,44.5789 Q16.7617,42.927 16.7617,39.8059 Q16.7617,36.6765 18.0815,35.0247 Q19.4014,33.3728 21.9082,33.3728 Q22.6138,33.3728 23.2612,33.5222 Q23.9087,33.6716 24.4731,33.9705 L24.4731,36.6931 Q23.8423,36.1121 23.2488,35.8423 Q22.6553,35.5725 22.0244,35.5725 Q20.6797,35.5725 19.9949,36.6392 Q19.3101,37.7058 19.3101,39.8059 Q19.3101,41.8977 19.9949,42.9644 Q20.6797,44.031 22.0244,44.031 Q22.6553,44.031 23.2488,43.7612 Q23.8423,43.4915 24.4731,42.9104 Z " fill="#000000"/><text fill="#000000" font-family="sans-serif" font-size="14" lengthAdjust="spacing" textLength="105" x="36" y="44.781">StatusMatrikkel</text><line style="stroke:#181818;stroke-width:0.5;" x1="8" x2="143" y1="55.49" y2="55.49"/><line style="stroke:#181818;stroke-width:0.5;" x1="8" x2="143" y1="63.49" y2="63.49"/></g><!--class StatusMatrikkelType--><g id="elem_StatusMatrikkelType"><rect codeLine="5" fill="#F1F1F1" height="80.9766" id="StatusMatrikkelType" rx="2.5" ry="2.5" style="stroke:#181818;stroke-width:0.5;" width="217" x="179" y="7"/><ellipse cx="215.15" cy="23" fill="#ADD1B2" rx="11" ry="11" style="stroke:#181818;stroke-width:1.0;"/><path d="M217.6231,29.1431 Q217.0421,29.4419 216.4029,29.5913 Q215.7638,29.7407 215.0582,29.7407 Q212.5514,29.7407 211.2315,28.0889 Q209.9117,26.437 209.9117,23.3159 Q209.9117,20.1865 211.2315,18.5347 Q212.5514,16.8828 215.0582,16.8828 Q215.7638,16.8828 216.4112,17.0322 Q217.0587,17.1816 217.6231,17.4805 L217.6231,20.2031 Q216.9923,19.6221 216.3988,19.3523 Q215.8053,19.0825 215.1744,19.0825 Q213.8297,19.0825 213.1449,20.1492 Q212.4601,21.2158 212.4601,23.3159 Q212.4601,25.4077 213.1449,26.4744 Q213.8297,27.541 215.1744,27.541 Q215.8053,27.541 216.3988,27.2712 Q216.9923,27.0015 217.6231,26.4204 Z " fill="#000000"/><text fill="#000000" font-family="sans-serif" font-size="14" lengthAdjust="spacing" textLength="138" x="233.85" y="28.291">StatusMatrikkelType</text><line style="stroke:#181818;stroke-width:0.5;" x1="180" x2="395" y1="39" y2="39"/><ellipse cx="190" cy="52.7441" fill="none" rx="3" ry="3" style="stroke:#038048;stroke-width:1.0;"/><text fill="#000000" font-family="sans-serif" font-size="14" lengthAdjust="spacing" textLength="158" x="199" y="56.5352">klientMeldingId : string</text><ellipse cx="190" cy="69.2324" fill="none" rx="3" ry="3" style="stroke:#038048;stroke-width:1.0;"/><text fill="#000000" font-family="sans-serif" font-size="14" lengthAdjust="spacing" textLength="191" x="199" y="73.0234">svarMedKvittering : boolean</text><line style="stroke:#181818;stroke-width:0.5;" x1="180" x2="395" y1="79.9766" y2="79.9766"/></g><!--reverse link StatusMatrikkel to StatusMatrikkelType--><g id="link_StatusMatrikkel_StatusMatrikkelType"><path codeLine="4" d="M158.22,47.49 C165.03,47.49 171.84,47.49 178.65,47.49 " fill="none" id="StatusMatrikkel-backto-StatusMatrikkelType" style="stroke:#181818;stroke-width:1.0;"/><polygon fill="#181818" points="145.23,47.49,151.23,51.49,157.23,47.49,151.23,43.49,145.23,47.49" style="stroke:#181818;stroke-width:1.0;"/></g><!--SRC=[Iyv9B2vM22v9B2ajzaqiAShCpaxDKQZcgkL25zFIHLSMKbcGofMCpG2G3D0G1I3Gpix9JCqhyKtDISdCI_TCKR1IA0Qgoak7o1QN9HRvfgPubsMMbAI2X87oIVdvEQc9UK0t0000]--></g></svg>