<?xml version="1.0" encoding="us-ascii" standalone="no"?><svg xmlns="http://www.w3.org/2000/svg" xmlns:xlink="http://www.w3.org/1999/xlink" contentStyleType="text/css" height="301px" preserveAspectRatio="none" style="width:455px;height:301px;background:#FFFFFF;" version="1.1" viewBox="0 0 455 301" width="455px" zoomAndPan="magnify"><defs/><g><!--class KvitteringStatus--><g id="elem_KvitteringStatus"><rect codeLine="2" fill="#F1F1F1" height="97.4648" id="KvitteringStatus" rx="2.5" ry="2.5" style="stroke:#181818;stroke-width:0.5;" width="221" x="7" y="189.2"/><ellipse cx="59.25" cy="205.2" fill="#EB937F" rx="11" ry="11" style="stroke:#181818;stroke-width:1.0;"/><path d="M62.8643,211.7 L55.1445,211.7 L55.1445,199.3069 L62.8643,199.3069 L62.8643,201.4651 L57.5933,201.4651 L57.5933,204.138 L62.3662,204.138 L62.3662,206.2962 L57.5933,206.2962 L57.5933,209.5418 L62.8643,209.5418 Z " fill="#000000"/><text fill="#000000" font-family="sans-serif" font-size="14" lengthAdjust="spacing" textLength="108" x="79.75" y="210.491">KvitteringStatus</text><line style="stroke:#181818;stroke-width:0.5;" x1="8" x2="227" y1="221.2" y2="221.2"/><text fill="#000000" font-family="sans-serif" font-size="14" lengthAdjust="spacing" textLength="209" x="13" y="238.7352">IkkeForespurt = IkkeForespurt</text><text fill="#000000" font-family="sans-serif" font-size="14" lengthAdjust="spacing" textLength="123" x="13" y="255.2234">Vedlagt = Vedlagt</text><text fill="#000000" font-family="sans-serif" font-size="14" lengthAdjust="spacing" textLength="119" x="13" y="271.7117">Utloept = Utloept</text><line style="stroke:#181818;stroke-width:0.5;" x1="8" x2="227" y1="278.6648" y2="278.6648"/></g><!--class StatusMatrikkelSvar--><g id="elem_StatusMatrikkelSvar"><rect codeLine="7" fill="#F1F1F1" height="113.9531" id="StatusMatrikkelSvar" rx="2.5" ry="2.5" style="stroke:#181818;stroke-width:0.5;" width="253" x="110" y="7"/><ellipse cx="165.25" cy="23" fill="#ADD1B2" rx="11" ry="11" style="stroke:#181818;stroke-width:1.0;"/><path d="M167.7231,29.1431 Q167.1421,29.4419 166.5029,29.5913 Q165.8638,29.7407 165.1582,29.7407 Q162.6514,29.7407 161.3315,28.0889 Q160.0117,26.437 160.0117,23.3159 Q160.0117,20.1865 161.3315,18.5347 Q162.6514,16.8828 165.1582,16.8828 Q165.8638,16.8828 166.5112,17.0322 Q167.1587,17.1816 167.7231,17.4805 L167.7231,20.2031 Q167.0923,19.6221 166.4988,19.3523 Q165.9053,19.0825 165.2744,19.0825 Q163.9297,19.0825 163.2449,20.1492 Q162.5601,21.2158 162.5601,23.3159 Q162.5601,25.4077 163.2449,26.4744 Q163.9297,27.541 165.2744,27.541 Q165.9053,27.541 166.4988,27.2712 Q167.0923,27.0015 167.7231,26.4204 Z " fill="#000000"/><text fill="#000000" font-family="sans-serif" font-size="14" lengthAdjust="spacing" textLength="134" x="185.75" y="28.291">StatusMatrikkelSvar</text><line style="stroke:#181818;stroke-width:0.5;" x1="111" x2="362" y1="39" y2="39"/><ellipse cx="121" cy="52.7441" fill="none" rx="3" ry="3" style="stroke:#038048;stroke-width:1.0;"/><text fill="#000000" font-family="sans-serif" font-size="14" lengthAdjust="spacing" textLength="158" x="130" y="56.5352">klientMeldingId : string</text><ellipse cx="121" cy="69.2324" fill="none" rx="3" ry="3" style="stroke:#038048;stroke-width:1.0;"/><text fill="#000000" font-family="sans-serif" font-size="14" lengthAdjust="spacing" textLength="205" x="130" y="73.0234">statusBehandling : StatusType</text><ellipse cx="121" cy="85.7207" fill="none" rx="3" ry="3" style="stroke:#038048;stroke-width:1.0;"/><text fill="#000000" font-family="sans-serif" font-size="14" lengthAdjust="spacing" textLength="121" x="130" y="89.5117">meldingId : string</text><ellipse cx="121" cy="102.209" fill="none" rx="3" ry="3" style="stroke:#038048;stroke-width:1.0;"/><text fill="#000000" font-family="sans-serif" font-size="14" lengthAdjust="spacing" textLength="227" x="130" y="106">statusKvittering : KvitteringStatus</text><line style="stroke:#181818;stroke-width:0.5;" x1="111" x2="362" y1="112.9531" y2="112.9531"/></g><!--class StatusType--><g id="elem_StatusType"><rect codeLine="15" fill="#F1F1F1" height="113.9531" id="StatusType" rx="2.5" ry="2.5" style="stroke:#181818;stroke-width:0.5;" width="185" x="263" y="180.96"/><ellipse cx="313.75" cy="196.96" fill="#EB937F" rx="11" ry="11" style="stroke:#181818;stroke-width:1.0;"/><path d="M317.3643,203.46 L309.6445,203.46 L309.6445,191.0669 L317.3643,191.0669 L317.3643,193.2251 L312.0933,193.2251 L312.0933,195.898 L316.8662,195.898 L316.8662,198.0562 L312.0933,198.0562 L312.0933,201.3018 L317.3643,201.3018 Z " fill="#000000"/><text fill="#000000" font-family="sans-serif" font-size="14" lengthAdjust="spacing" textLength="75" x="334.25" y="202.251">StatusType</text><line style="stroke:#181818;stroke-width:0.5;" x1="264" x2="447" y1="212.96" y2="212.96"/><text fill="#000000" font-family="sans-serif" font-size="14" lengthAdjust="spacing" textLength="173" x="269" y="230.4952">IkkeMottatt = IkkeMottatt</text><text fill="#000000" font-family="sans-serif" font-size="14" lengthAdjust="spacing" textLength="117" x="269" y="246.9834">Mottatt = Mottatt</text><text fill="#000000" font-family="sans-serif" font-size="14" lengthAdjust="spacing" textLength="67" x="269" y="263.4717">Feil = Feil</text><text fill="#000000" font-family="sans-serif" font-size="14" lengthAdjust="spacing" textLength="117" x="269" y="279.96">Kvittert = Kvittert</text><line style="stroke:#181818;stroke-width:0.5;" x1="264" x2="447" y1="286.9131" y2="286.9131"/></g><!--link StatusMatrikkelSvar to KvitteringStatus--><g id="link_StatusMatrikkelSvar_KvitteringStatus"><path codeLine="13" d="M197.53,121.28 C182.42,143.13 165.29,167.88 150.76,188.87 " fill="none" id="StatusMatrikkelSvar-KvitteringStatus" style="stroke:#181818;stroke-width:1.0;"/></g><!--link StatusMatrikkelSvar to StatusType--><g id="link_StatusMatrikkelSvar_StatusType"><path codeLine="14" d="M275.47,121.28 C288.62,140.29 303.29,161.49 316.45,180.5 " fill="none" id="StatusMatrikkelSvar-StatusType" style="stroke:#181818;stroke-width:1.0;"/></g><!--SRC=[VL1B2eCm4DrxYkoB5oXqquKWnPLjzw4PR72Caen2ARrx9n_HVhF9lCzCNWRCs8d3f8d0QjFK96bqufu9FcNRGj5RSCDeIUnUSN2SGQ5il9Qgm9u8UnWycwhiaLrGEYVY-4gIrJmBwqdQzDQcHGs6Aa35CKebjiAHJnHL5nhtS9L68RCinrd7sm3HqlrjNRx8ylj_ET-tP7d-wVpXMuK1lz45htPPzSJqlCc4WheeQxO0ZKpvA-0KnjlcafC_0G00]--></g></svg>