<?xml version="1.0" encoding="us-ascii" standalone="no"?><svg xmlns="http://www.w3.org/2000/svg" xmlns:xlink="http://www.w3.org/1999/xlink" contentStyleType="text/css" height="834px" preserveAspectRatio="none" style="width:1450px;height:834px;background:#FFFFFF;" version="1.1" viewBox="0 0 1450 834" width="1450px" zoomAndPan="magnify"><defs/><g><rect fill="#F1F1F1" height="61.4648" rx="5" ry="5" style="stroke:#F1F1F1;stroke-width:1.5;" width="307" x="10" y="350.4883"/><text fill="#000000" font-family="sans-serif" font-size="14" font-weight="bold" lengthAdjust="spacing" textLength="101" x="15" y="366.0234">protokollnavn</text><text fill="#000000" font-family="sans-serif" font-size="14" lengthAdjust="spacing" textLength="183" x="129" y="366.0234">no.ks.fiks.matrikkelfoering</text><line style="stroke:#000000;stroke-width:1.0;" x1="124" x2="124" y1="350.4883" y2="370.9766"/><line style="stroke:#000000;stroke-width:1.0;" x1="10" x2="317" y1="370.9766" y2="370.9766"/><text fill="#000000" font-family="sans-serif" font-size="14" font-weight="bold" lengthAdjust="spacing" textLength="53" x="15" y="386.5117">versjon</text><text fill="#000000" font-family="sans-serif" font-size="14" lengthAdjust="spacing" textLength="16" x="129" y="386.5117">v2</text><line style="stroke:#000000;stroke-width:1.0;" x1="124" x2="124" y1="370.9766" y2="391.4648"/><line style="stroke:#000000;stroke-width:1.0;" x1="10" x2="317" y1="391.4648" y2="391.4648"/><text fill="#000000" font-family="sans-serif" font-size="14" font-weight="bold" lengthAdjust="spacing" textLength="104" x="15" y="407">meldingstyper</text><text fill="#000000" font-family="sans-serif" font-size="14" lengthAdjust="spacing" textLength="12" x="129" y="407">&#160;&#160;&#160;</text><line style="stroke:#000000;stroke-width:1.0;" x1="124" x2="124" y1="391.4648" y2="411.9531"/><rect fill="none" height="61.4648" rx="5" ry="5" style="stroke:#000000;stroke-width:1.5;" width="307" x="10" y="350.4883"/><rect fill="#F1F1F1" height="143.418" rx="5" ry="5" style="stroke:#F1F1F1;stroke-width:1.5;" width="22" x="354" y="329.5117"/><text fill="#000000" font-family="sans-serif" font-size="14" lengthAdjust="spacing" textLength="12" x="359" y="345.0469">&#160;&#160;&#160;</text><line style="stroke:#000000;stroke-width:1.0;" x1="354" x2="376" y1="350" y2="350"/><text fill="#000000" font-family="sans-serif" font-size="14" lengthAdjust="spacing" textLength="12" x="359" y="365.5352">&#160;&#160;&#160;</text><line style="stroke:#000000;stroke-width:1.0;" x1="354" x2="376" y1="370.4883" y2="370.4883"/><text fill="#000000" font-family="sans-serif" font-size="14" lengthAdjust="spacing" textLength="12" x="359" y="386.0234">&#160;&#160;&#160;</text><line style="stroke:#000000;stroke-width:1.0;" x1="354" x2="376" y1="390.9766" y2="390.9766"/><text fill="#000000" font-family="sans-serif" font-size="14" lengthAdjust="spacing" textLength="12" x="359" y="406.5117">&#160;&#160;&#160;</text><line style="stroke:#000000;stroke-width:1.0;" x1="354" x2="376" y1="411.4648" y2="411.4648"/><text fill="#000000" font-family="sans-serif" font-size="14" lengthAdjust="spacing" textLength="12" x="359" y="427">&#160;&#160;&#160;</text><line style="stroke:#000000;stroke-width:1.0;" x1="354" x2="376" y1="431.9531" y2="431.9531"/><text fill="#000000" font-family="sans-serif" font-size="14" lengthAdjust="spacing" textLength="12" x="359" y="447.4883">&#160;&#160;&#160;</text><line style="stroke:#000000;stroke-width:1.0;" x1="354" x2="376" y1="452.4414" y2="452.4414"/><text fill="#000000" font-family="sans-serif" font-size="14" lengthAdjust="spacing" textLength="12" x="359" y="467.9766">&#160;&#160;&#160;</text><rect fill="none" height="143.418" rx="5" ry="5" style="stroke:#000000;stroke-width:1.5;" width="22" x="354" y="329.5117"/><rect fill="#F1F1F1" height="102.4414" rx="5" ry="5" style="stroke:#F1F1F1;stroke-width:1.5;" width="398" x="490.5" y="10"/><text fill="#000000" font-family="sans-serif" font-size="14" font-weight="bold" lengthAdjust="spacing" textLength="14" x="495.5" y="25.5352">id</text><text fill="#000000" font-family="sans-serif" font-size="14" lengthAdjust="spacing" textLength="270" x="613.5" y="25.5352">no.ks.fiks.matrikkelfoering.v2.grunnlag</text><line style="stroke:#000000;stroke-width:1.0;" x1="608.5" x2="608.5" y1="10" y2="30.4883"/><line style="stroke:#000000;stroke-width:1.0;" x1="490.5" x2="888.5" y1="30.4883" y2="30.4883"/><text fill="#000000" font-family="sans-serif" font-size="14" font-weight="bold" lengthAdjust="spacing" textLength="82" x="495.5" y="46.0234">beskrivelse</text><text fill="#000000" font-family="sans-serif" font-size="14" lengthAdjust="spacing" textLength="4" x="613.5" y="46.0234">&#160;</text><line style="stroke:#000000;stroke-width:1.0;" x1="608.5" x2="608.5" y1="30.4883" y2="50.9766"/><line style="stroke:#000000;stroke-width:1.0;" x1="490.5" x2="888.5" y1="50.9766" y2="50.9766"/><text fill="#000000" font-family="sans-serif" font-size="14" font-weight="bold" lengthAdjust="spacing" textLength="79" x="495.5" y="66.5117">harPayload</text><text fill="#000000" font-family="sans-serif" font-size="14" lengthAdjust="spacing" textLength="44" x="613.5" y="66.5117">&#9745; true</text><line style="stroke:#000000;stroke-width:1.0;" x1="608.5" x2="608.5" y1="50.9766" y2="71.4648"/><line style="stroke:#000000;stroke-width:1.0;" x1="490.5" x2="888.5" y1="71.4648" y2="71.4648"/><text fill="#000000" font-family="sans-serif" font-size="14" font-weight="bold" lengthAdjust="spacing" textLength="108" x="495.5" y="87">payloadFilnavn</text><text fill="#000000" font-family="sans-serif" font-size="14" lengthAdjust="spacing" textLength="12" x="613.5" y="87">&#160;&#160;&#160;</text><line style="stroke:#000000;stroke-width:1.0;" x1="608.5" x2="608.5" y1="71.4648" y2="91.9531"/><line style="stroke:#000000;stroke-width:1.0;" x1="490.5" x2="888.5" y1="91.9531" y2="91.9531"/><text fill="#000000" font-family="sans-serif" font-size="14" font-weight="bold" lengthAdjust="spacing" textLength="94" x="495.5" y="107.4883">kanSvareMed</text><text fill="#000000" font-family="sans-serif" font-size="14" lengthAdjust="spacing" textLength="12" x="613.5" y="107.4883">&#160;&#160;&#160;</text><line style="stroke:#000000;stroke-width:1.0;" x1="608.5" x2="608.5" y1="91.9531" y2="112.4414"/><rect fill="none" height="102.4414" rx="5" ry="5" style="stroke:#000000;stroke-width:1.5;" width="398" x="490.5" y="10"/><rect fill="#F1F1F1" height="40.9766" rx="5" ry="5" style="stroke:#F1F1F1;stroke-width:1.5;" width="105" x="1168" y="17.7207"/><text fill="#000000" font-family="sans-serif" font-size="14" lengthAdjust="spacing" textLength="95" x="1173" y="33.2559">byggesak.xml</text><line style="stroke:#000000;stroke-width:1.0;" x1="1168" x2="1273" y1="38.209" y2="38.209"/><text fill="#000000" font-family="sans-serif" font-size="14" lengthAdjust="spacing" textLength="72" x="1173" y="53.7441">index.json</text><rect fill="none" height="40.9766" rx="5" ry="5" style="stroke:#000000;stroke-width:1.5;" width="105" x="1168" y="17.7207"/><rect fill="#F1F1F1" height="81.9531" rx="5" ry="5" style="stroke:#F1F1F1;stroke-width:1.5;" width="435" x="1003" y="77.2207"/><text fill="#000000" font-family="sans-serif" font-size="14" lengthAdjust="spacing" textLength="257" x="1008" y="92.7559">no.ks.fiks.matrikkelfoering.v2.mottatt</text><line style="stroke:#000000;stroke-width:1.0;" x1="1003" x2="1438" y1="97.709" y2="97.709"/><text fill="#000000" font-family="sans-serif" font-size="14" lengthAdjust="spacing" textLength="272" x="1008" y="113.2441">no.ks.fiks.matrikkelfoering.v2.kvittering</text><line style="stroke:#000000;stroke-width:1.0;" x1="1003" x2="1438" y1="118.1973" y2="118.1973"/><text fill="#000000" font-family="sans-serif" font-size="14" lengthAdjust="spacing" textLength="425" x="1008" y="133.7324">no.ks.fiks.matrikkelfoering.v2.feilmelding.ugyldigforespoersel</text><line style="stroke:#000000;stroke-width:1.0;" x1="1003" x2="1438" y1="138.6855" y2="138.6855"/><text fill="#000000" font-family="sans-serif" font-size="14" lengthAdjust="spacing" textLength="351" x="1008" y="154.2207">no.ks.fiks.matrikkelfoering.v2.feilmelding.serverfeil</text><rect fill="none" height="81.9531" rx="5" ry="5" style="stroke:#000000;stroke-width:1.5;" width="435" x="1003" y="77.2207"/><rect fill="#F1F1F1" height="81.9531" rx="5" ry="5" style="stroke:#F1F1F1;stroke-width:1.5;" width="359" x="510" y="130.2207"/><text fill="#000000" font-family="sans-serif" font-size="14" font-weight="bold" lengthAdjust="spacing" textLength="14" x="515" y="145.7559">id</text><text fill="#000000" font-family="sans-serif" font-size="14" lengthAdjust="spacing" textLength="257" x="607" y="145.7559">no.ks.fiks.matrikkelfoering.v2.mottatt</text><line style="stroke:#000000;stroke-width:1.0;" x1="602" x2="602" y1="130.2207" y2="150.709"/><line style="stroke:#000000;stroke-width:1.0;" x1="510" x2="869" y1="150.709" y2="150.709"/><text fill="#000000" font-family="sans-serif" font-size="14" font-weight="bold" lengthAdjust="spacing" textLength="82" x="515" y="166.2441">beskrivelse</text><text fill="#000000" font-family="sans-serif" font-size="14" lengthAdjust="spacing" textLength="4" x="607" y="166.2441">&#160;</text><line style="stroke:#000000;stroke-width:1.0;" x1="602" x2="602" y1="150.709" y2="171.1973"/><line style="stroke:#000000;stroke-width:1.0;" x1="510" x2="869" y1="171.1973" y2="171.1973"/><text fill="#000000" font-family="sans-serif" font-size="14" font-weight="bold" lengthAdjust="spacing" textLength="79" x="515" y="186.7324">harPayload</text><text fill="#000000" font-family="sans-serif" font-size="14" lengthAdjust="spacing" textLength="48" x="607" y="186.7324">&#9744; false</text><line style="stroke:#000000;stroke-width:1.0;" x1="602" x2="602" y1="171.1973" y2="191.6855"/><line style="stroke:#000000;stroke-width:1.0;" x1="510" x2="869" y1="191.6855" y2="191.6855"/><text fill="#000000" font-family="sans-serif" font-size="14" font-weight="bold" lengthAdjust="spacing" textLength="69" x="515" y="207.2207">erSvarPaa</text><text fill="#000000" font-family="sans-serif" font-size="14" lengthAdjust="spacing" textLength="12" x="607" y="207.2207">&#160;&#160;&#160;</text><line style="stroke:#000000;stroke-width:1.0;" x1="602" x2="602" y1="191.6855" y2="212.1738"/><rect fill="none" height="81.9531" rx="5" ry="5" style="stroke:#000000;stroke-width:1.5;" width="359" x="510" y="130.2207"/><rect fill="#F1F1F1" height="20.4883" rx="5" ry="5" style="stroke:#F1F1F1;stroke-width:1.5;" width="280" x="1080.5" y="191.9766"/><text fill="#000000" font-family="sans-serif" font-size="14" lengthAdjust="spacing" textLength="270" x="1085.5" y="207.5117">no.ks.fiks.matrikkelfoering.v2.grunnlag</text><rect fill="none" height="20.4883" rx="5" ry="5" style="stroke:#000000;stroke-width:1.5;" width="280" x="1080.5" y="191.9766"/><rect fill="#F1F1F1" height="102.4414" rx="5" ry="5" style="stroke:#F1F1F1;stroke-width:1.5;" width="400" x="489.5" y="230"/><text fill="#000000" font-family="sans-serif" font-size="14" font-weight="bold" lengthAdjust="spacing" textLength="14" x="494.5" y="245.5352">id</text><text fill="#000000" font-family="sans-serif" font-size="14" lengthAdjust="spacing" textLength="272" x="612.5" y="245.5352">no.ks.fiks.matrikkelfoering.v2.kvittering</text><line style="stroke:#000000;stroke-width:1.0;" x1="607.5" x2="607.5" y1="230" y2="250.4883"/><line style="stroke:#000000;stroke-width:1.0;" x1="489.5" x2="889.5" y1="250.4883" y2="250.4883"/><text fill="#000000" font-family="sans-serif" font-size="14" font-weight="bold" lengthAdjust="spacing" textLength="82" x="494.5" y="266.0234">beskrivelse</text><text fill="#000000" font-family="sans-serif" font-size="14" lengthAdjust="spacing" textLength="4" x="612.5" y="266.0234">&#160;</text><line style="stroke:#000000;stroke-width:1.0;" x1="607.5" x2="607.5" y1="250.4883" y2="270.9766"/><line style="stroke:#000000;stroke-width:1.0;" x1="489.5" x2="889.5" y1="270.9766" y2="270.9766"/><text fill="#000000" font-family="sans-serif" font-size="14" font-weight="bold" lengthAdjust="spacing" textLength="79" x="494.5" y="286.5117">harPayload</text><text fill="#000000" font-family="sans-serif" font-size="14" lengthAdjust="spacing" textLength="44" x="612.5" y="286.5117">&#9745; true</text><line style="stroke:#000000;stroke-width:1.0;" x1="607.5" x2="607.5" y1="270.9766" y2="291.4648"/><line style="stroke:#000000;stroke-width:1.0;" x1="489.5" x2="889.5" y1="291.4648" y2="291.4648"/><text fill="#000000" font-family="sans-serif" font-size="14" font-weight="bold" lengthAdjust="spacing" textLength="108" x="494.5" y="307">payloadFilnavn</text><text fill="#000000" font-family="sans-serif" font-size="14" lengthAdjust="spacing" textLength="95" x="612.5" y="307">kvittering.xml</text><line style="stroke:#000000;stroke-width:1.0;" x1="607.5" x2="607.5" y1="291.4648" y2="311.9531"/><line style="stroke:#000000;stroke-width:1.0;" x1="489.5" x2="889.5" y1="311.9531" y2="311.9531"/><text fill="#000000" font-family="sans-serif" font-size="14" font-weight="bold" lengthAdjust="spacing" textLength="69" x="494.5" y="327.4883">erSvarPaa</text><text fill="#000000" font-family="sans-serif" font-size="14" lengthAdjust="spacing" textLength="12" x="612.5" y="327.4883">&#160;&#160;&#160;</text><line style="stroke:#000000;stroke-width:1.0;" x1="607.5" x2="607.5" y1="311.9531" y2="332.4414"/><rect fill="none" height="102.4414" rx="5" ry="5" style="stroke:#000000;stroke-width:1.5;" width="400" x="489.5" y="230"/><rect fill="#F1F1F1" height="20.4883" rx="5" ry="5" style="stroke:#F1F1F1;stroke-width:1.5;" width="280" x="1080.5" y="311.9766"/><text fill="#000000" font-family="sans-serif" font-size="14" lengthAdjust="spacing" textLength="270" x="1085.5" y="327.5117">no.ks.fiks.matrikkelfoering.v2.grunnlag</text><rect fill="none" height="20.4883" rx="5" ry="5" style="stroke:#000000;stroke-width:1.5;" width="280" x="1080.5" y="311.9766"/><rect fill="#F1F1F1" height="102.4414" rx="5" ry="5" style="stroke:#F1F1F1;stroke-width:1.5;" width="376" x="501.5" y="350"/><text fill="#000000" font-family="sans-serif" font-size="14" font-weight="bold" lengthAdjust="spacing" textLength="14" x="506.5" y="365.5352">id</text><text fill="#000000" font-family="sans-serif" font-size="14" lengthAdjust="spacing" textLength="248" x="624.5" y="365.5352">no.ks.fiks.matrikkelfoering.v2.status</text><line style="stroke:#000000;stroke-width:1.0;" x1="619.5" x2="619.5" y1="350" y2="370.4883"/><line style="stroke:#000000;stroke-width:1.0;" x1="501.5" x2="877.5" y1="370.4883" y2="370.4883"/><text fill="#000000" font-family="sans-serif" font-size="14" font-weight="bold" lengthAdjust="spacing" textLength="82" x="506.5" y="386.0234">beskrivelse</text><text fill="#000000" font-family="sans-serif" font-size="14" lengthAdjust="spacing" textLength="221" x="624.5" y="386.0234">Foresp&#248;rsel om status p&#229; en sak</text><line style="stroke:#000000;stroke-width:1.0;" x1="619.5" x2="619.5" y1="370.4883" y2="390.9766"/><line style="stroke:#000000;stroke-width:1.0;" x1="501.5" x2="877.5" y1="390.9766" y2="390.9766"/><text fill="#000000" font-family="sans-serif" font-size="14" font-weight="bold" lengthAdjust="spacing" textLength="79" x="506.5" y="406.5117">harPayload</text><text fill="#000000" font-family="sans-serif" font-size="14" lengthAdjust="spacing" textLength="44" x="624.5" y="406.5117">&#9745; true</text><line style="stroke:#000000;stroke-width:1.0;" x1="619.5" x2="619.5" y1="390.9766" y2="411.4648"/><line style="stroke:#000000;stroke-width:1.0;" x1="501.5" x2="877.5" y1="411.4648" y2="411.4648"/><text fill="#000000" font-family="sans-serif" font-size="14" font-weight="bold" lengthAdjust="spacing" textLength="108" x="506.5" y="427">payloadFilnavn</text><text fill="#000000" font-family="sans-serif" font-size="14" lengthAdjust="spacing" textLength="71" x="624.5" y="427">status.xml</text><line style="stroke:#000000;stroke-width:1.0;" x1="619.5" x2="619.5" y1="411.4648" y2="431.9531"/><line style="stroke:#000000;stroke-width:1.0;" x1="501.5" x2="877.5" y1="431.9531" y2="431.9531"/><text fill="#000000" font-family="sans-serif" font-size="14" font-weight="bold" lengthAdjust="spacing" textLength="94" x="506.5" y="447.4883">kanSvareMed</text><text fill="#000000" font-family="sans-serif" font-size="14" lengthAdjust="spacing" textLength="12" x="624.5" y="447.4883">&#160;&#160;&#160;</text><line style="stroke:#000000;stroke-width:1.0;" x1="619.5" x2="619.5" y1="431.9531" y2="452.4414"/><rect fill="none" height="102.4414" rx="5" ry="5" style="stroke:#000000;stroke-width:1.5;" width="376" x="501.5" y="350"/><rect fill="#F1F1F1" height="61.4648" rx="5" ry="5" style="stroke:#F1F1F1;stroke-width:1.5;" width="351" x="1045" y="411.4883"/><text fill="#000000" font-family="sans-serif" font-size="14" lengthAdjust="spacing" textLength="276" x="1050" y="427.0234">no.ks.fiks.matrikkelfoering.v2.statussvar</text><line style="stroke:#000000;stroke-width:1.0;" x1="1045" x2="1396" y1="431.9766" y2="431.9766"/><text fill="#000000" font-family="sans-serif" font-size="14" lengthAdjust="spacing" textLength="341" x="1050" y="447.5117">no.ks.fiks.plan.v2.feilmelding.ugyldigforespoersel</text><line style="stroke:#000000;stroke-width:1.0;" x1="1045" x2="1396" y1="452.4648" y2="452.4648"/><text fill="#000000" font-family="sans-serif" font-size="14" lengthAdjust="spacing" textLength="267" x="1050" y="468">no.ks.fiks.plan.v2.feilmelding.serverfeil</text><rect fill="none" height="61.4648" rx="5" ry="5" style="stroke:#000000;stroke-width:1.5;" width="351" x="1045" y="411.4883"/><rect fill="#F1F1F1" height="102.4414" rx="5" ry="5" style="stroke:#F1F1F1;stroke-width:1.5;" width="404" x="487.5" y="470"/><text fill="#000000" font-family="sans-serif" font-size="14" font-weight="bold" lengthAdjust="spacing" textLength="14" x="492.5" y="485.5352">id</text><text fill="#000000" font-family="sans-serif" font-size="14" lengthAdjust="spacing" textLength="276" x="610.5" y="485.5352">no.ks.fiks.matrikkelfoering.v2.statussvar</text><line style="stroke:#000000;stroke-width:1.0;" x1="605.5" x2="605.5" y1="470" y2="490.4883"/><line style="stroke:#000000;stroke-width:1.0;" x1="487.5" x2="891.5" y1="490.4883" y2="490.4883"/><text fill="#000000" font-family="sans-serif" font-size="14" font-weight="bold" lengthAdjust="spacing" textLength="82" x="492.5" y="506.0234">beskrivelse</text><text fill="#000000" font-family="sans-serif" font-size="14" lengthAdjust="spacing" textLength="4" x="610.5" y="506.0234">&#160;</text><line style="stroke:#000000;stroke-width:1.0;" x1="605.5" x2="605.5" y1="490.4883" y2="510.9766"/><line style="stroke:#000000;stroke-width:1.0;" x1="487.5" x2="891.5" y1="510.9766" y2="510.9766"/><text fill="#000000" font-family="sans-serif" font-size="14" font-weight="bold" lengthAdjust="spacing" textLength="79" x="492.5" y="526.5117">harPayload</text><text fill="#000000" font-family="sans-serif" font-size="14" lengthAdjust="spacing" textLength="44" x="610.5" y="526.5117">&#9745; true</text><line style="stroke:#000000;stroke-width:1.0;" x1="605.5" x2="605.5" y1="510.9766" y2="531.4648"/><line style="stroke:#000000;stroke-width:1.0;" x1="487.5" x2="891.5" y1="531.4648" y2="531.4648"/><text fill="#000000" font-family="sans-serif" font-size="14" font-weight="bold" lengthAdjust="spacing" textLength="108" x="492.5" y="547">payloadFilnavn</text><text fill="#000000" font-family="sans-serif" font-size="14" lengthAdjust="spacing" textLength="99" x="610.5" y="547">statussvar.xml</text><line style="stroke:#000000;stroke-width:1.0;" x1="605.5" x2="605.5" y1="531.4648" y2="551.9531"/><line style="stroke:#000000;stroke-width:1.0;" x1="487.5" x2="891.5" y1="551.9531" y2="551.9531"/><text fill="#000000" font-family="sans-serif" font-size="14" font-weight="bold" lengthAdjust="spacing" textLength="69" x="492.5" y="567.4883">erSvarPaa</text><text fill="#000000" font-family="sans-serif" font-size="14" lengthAdjust="spacing" textLength="12" x="610.5" y="567.4883">&#160;&#160;&#160;</text><line style="stroke:#000000;stroke-width:1.0;" x1="605.5" x2="605.5" y1="551.9531" y2="572.4414"/><rect fill="none" height="102.4414" rx="5" ry="5" style="stroke:#000000;stroke-width:1.5;" width="404" x="487.5" y="470"/><rect fill="#F1F1F1" height="20.4883" rx="5" ry="5" style="stroke:#F1F1F1;stroke-width:1.5;" width="258" x="1091.5" y="551.9766"/><text fill="#000000" font-family="sans-serif" font-size="14" lengthAdjust="spacing" textLength="248" x="1096.5" y="567.5117">no.ks.fiks.matrikkelfoering.v2.status</text><rect fill="none" height="20.4883" rx="5" ry="5" style="stroke:#000000;stroke-width:1.5;" width="258" x="1091.5" y="551.9766"/><rect fill="#F1F1F1" height="102.4414" rx="5" ry="5" style="stroke:#F1F1F1;stroke-width:1.5;" width="553" x="413" y="590"/><text fill="#000000" font-family="sans-serif" font-size="14" font-weight="bold" lengthAdjust="spacing" textLength="14" x="418" y="605.5352">id</text><text fill="#000000" font-family="sans-serif" font-size="14" lengthAdjust="spacing" textLength="425" x="536" y="605.5352">no.ks.fiks.matrikkelfoering.v2.feilmelding.ugyldigforespoersel</text><line style="stroke:#000000;stroke-width:1.0;" x1="531" x2="531" y1="590" y2="610.4883"/><line style="stroke:#000000;stroke-width:1.0;" x1="413" x2="966" y1="610.4883" y2="610.4883"/><text fill="#000000" font-family="sans-serif" font-size="14" font-weight="bold" lengthAdjust="spacing" textLength="82" x="418" y="626.0234">beskrivelse</text><text fill="#000000" font-family="sans-serif" font-size="14" lengthAdjust="spacing" textLength="4" x="536" y="626.0234">&#160;</text><line style="stroke:#000000;stroke-width:1.0;" x1="531" x2="531" y1="610.4883" y2="630.9766"/><line style="stroke:#000000;stroke-width:1.0;" x1="413" x2="966" y1="630.9766" y2="630.9766"/><text fill="#000000" font-family="sans-serif" font-size="14" font-weight="bold" lengthAdjust="spacing" textLength="79" x="418" y="646.5117">harPayload</text><text fill="#000000" font-family="sans-serif" font-size="14" lengthAdjust="spacing" textLength="44" x="536" y="646.5117">&#9745; true</text><line style="stroke:#000000;stroke-width:1.0;" x1="531" x2="531" y1="630.9766" y2="651.4648"/><line style="stroke:#000000;stroke-width:1.0;" x1="413" x2="966" y1="651.4648" y2="651.4648"/><text fill="#000000" font-family="sans-serif" font-size="14" font-weight="bold" lengthAdjust="spacing" textLength="108" x="418" y="667">payloadFilnavn</text><text fill="#000000" font-family="sans-serif" font-size="14" lengthAdjust="spacing" textLength="107" x="536" y="667">feilmelding.xml</text><line style="stroke:#000000;stroke-width:1.0;" x1="531" x2="531" y1="651.4648" y2="671.9531"/><line style="stroke:#000000;stroke-width:1.0;" x1="413" x2="966" y1="671.9531" y2="671.9531"/><text fill="#000000" font-family="sans-serif" font-size="14" font-weight="bold" lengthAdjust="spacing" textLength="69" x="418" y="687.4883">erSvarPaa</text><text fill="#000000" font-family="sans-serif" font-size="14" lengthAdjust="spacing" textLength="12" x="536" y="687.4883">&#160;&#160;&#160;</text><line style="stroke:#000000;stroke-width:1.0;" x1="531" x2="531" y1="671.9531" y2="692.4414"/><rect fill="none" height="102.4414" rx="5" ry="5" style="stroke:#000000;stroke-width:1.5;" width="553" x="413" y="590"/><rect fill="#F1F1F1" height="40.9766" rx="5" ry="5" style="stroke:#F1F1F1;stroke-width:1.5;" width="280" x="1080.5" y="661.7207"/><text fill="#000000" font-family="sans-serif" font-size="14" lengthAdjust="spacing" textLength="270" x="1085.5" y="677.2559">no.ks.fiks.matrikkelfoering.v2.grunnlag</text><line style="stroke:#000000;stroke-width:1.0;" x1="1080.5" x2="1360.5" y1="682.209" y2="682.209"/><text fill="#000000" font-family="sans-serif" font-size="14" lengthAdjust="spacing" textLength="248" x="1085.5" y="697.7441">no.ks.fiks.matrikkelfoering.v2.status</text><rect fill="none" height="40.9766" rx="5" ry="5" style="stroke:#000000;stroke-width:1.5;" width="280" x="1080.5" y="661.7207"/><rect fill="#F1F1F1" height="102.4414" rx="5" ry="5" style="stroke:#F1F1F1;stroke-width:1.5;" width="479" x="450" y="710"/><text fill="#000000" font-family="sans-serif" font-size="14" font-weight="bold" lengthAdjust="spacing" textLength="14" x="455" y="725.5352">id</text><text fill="#000000" font-family="sans-serif" font-size="14" lengthAdjust="spacing" textLength="351" x="573" y="725.5352">no.ks.fiks.matrikkelfoering.v2.feilmelding.serverfeil</text><line style="stroke:#000000;stroke-width:1.0;" x1="568" x2="568" y1="710" y2="730.4883"/><line style="stroke:#000000;stroke-width:1.0;" x1="450" x2="929" y1="730.4883" y2="730.4883"/><text fill="#000000" font-family="sans-serif" font-size="14" font-weight="bold" lengthAdjust="spacing" textLength="82" x="455" y="746.0234">beskrivelse</text><text fill="#000000" font-family="sans-serif" font-size="14" lengthAdjust="spacing" textLength="4" x="573" y="746.0234">&#160;</text><line style="stroke:#000000;stroke-width:1.0;" x1="568" x2="568" y1="730.4883" y2="750.9766"/><line style="stroke:#000000;stroke-width:1.0;" x1="450" x2="929" y1="750.9766" y2="750.9766"/><text fill="#000000" font-family="sans-serif" font-size="14" font-weight="bold" lengthAdjust="spacing" textLength="79" x="455" y="766.5117">harPayload</text><text fill="#000000" font-family="sans-serif" font-size="14" lengthAdjust="spacing" textLength="44" x="573" y="766.5117">&#9745; true</text><line style="stroke:#000000;stroke-width:1.0;" x1="568" x2="568" y1="750.9766" y2="771.4648"/><line style="stroke:#000000;stroke-width:1.0;" x1="450" x2="929" y1="771.4648" y2="771.4648"/><text fill="#000000" font-family="sans-serif" font-size="14" font-weight="bold" lengthAdjust="spacing" textLength="108" x="455" y="787">payloadFilnavn</text><text fill="#000000" font-family="sans-serif" font-size="14" lengthAdjust="spacing" textLength="107" x="573" y="787">feilmelding.xml</text><line style="stroke:#000000;stroke-width:1.0;" x1="568" x2="568" y1="771.4648" y2="791.9531"/><line style="stroke:#000000;stroke-width:1.0;" x1="450" x2="929" y1="791.9531" y2="791.9531"/><text fill="#000000" font-family="sans-serif" font-size="14" font-weight="bold" lengthAdjust="spacing" textLength="69" x="455" y="807.4883">erSvarPaa</text><text fill="#000000" font-family="sans-serif" font-size="14" lengthAdjust="spacing" textLength="12" x="573" y="807.4883">&#160;&#160;&#160;</text><line style="stroke:#000000;stroke-width:1.0;" x1="568" x2="568" y1="791.9531" y2="812.4414"/><rect fill="none" height="102.4414" rx="5" ry="5" style="stroke:#000000;stroke-width:1.5;" width="479" x="450" y="710"/><rect fill="#F1F1F1" height="40.9766" rx="5" ry="5" style="stroke:#F1F1F1;stroke-width:1.5;" width="280" x="1080.5" y="781.7207"/><text fill="#000000" font-family="sans-serif" font-size="14" lengthAdjust="spacing" textLength="270" x="1085.5" y="797.2559">no.ks.fiks.matrikkelfoering.v2.grunnlag</text><line style="stroke:#000000;stroke-width:1.0;" x1="1080.5" x2="1360.5" y1="802.209" y2="802.209"/><text fill="#000000" font-family="sans-serif" font-size="14" lengthAdjust="spacing" textLength="248" x="1085.5" y="817.7441">no.ks.fiks.matrikkelfoering.v2.status</text><rect fill="none" height="40.9766" rx="5" ry="5" style="stroke:#000000;stroke-width:1.5;" width="280" x="1080.5" y="781.7207"/><path d="M877,81.2207 L890,81.2207 C903.3466,81.2207 1069.3964,58.8121 1160.7233,46.3482 " fill="none" style="stroke:#000000;stroke-width:1.0;stroke-dasharray:3.0,3.0;"/><path d="M1161.1341,49.3562 L1162.9793,46.0401 L1160.3126,43.3401 L1168.2434,45.3213 L1161.1341,49.3562 " fill="#000000" style="stroke:#000000;stroke-width:1.0;"/><ellipse cx="877" cy="81.2207" fill="#000000" rx="3" ry="3" style="stroke:#000000;stroke-width:1.0;"/><path d="M877,102.2207 L890,102.2207 C924.1381,102.2207 960.2394,103.0855 995.546,104.413 " fill="none" style="stroke:#000000;stroke-width:1.0;stroke-dasharray:3.0,3.0;"/><path d="M995.4299,107.4214 L997.8022,104.5 L995.662,101.4046 L1003.0669,104.7031 L995.4299,107.4214 " fill="#000000" style="stroke:#000000;stroke-width:1.0;"/><ellipse cx="877" cy="102.2207" fill="#000000" rx="3" ry="3" style="stroke:#000000;stroke-width:1.0;"/><path d="M364,340.2207 L377,340.2207 C426.3198,340.2207 379.0286,156.9752 413,121.2207 C432.4557,100.7438 457.1297,86.4441 483.6887,76.5785 " fill="none" style="stroke:#000000;stroke-width:1.0;stroke-dasharray:3.0,3.0;"/><path d="M484.7046,79.4437 L485.8375,75.8166 L482.6727,73.7134 L490.8515,74.0387 L484.7046,79.4437 " fill="#000000" style="stroke:#000000;stroke-width:1.0;"/><ellipse cx="364" cy="340.2207" fill="#000000" rx="3" ry="3" style="stroke:#000000;stroke-width:1.0;"/><path d="M858,202.2207 L871,202.2207 C937.3748,202.2207 1010.8502,202.2207 1073.1953,202.2207 " fill="none" style="stroke:#000000;stroke-width:1.0;stroke-dasharray:3.0,3.0;"/><path d="M1073.1953,205.2394 L1075.4593,202.2207 L1073.1953,199.202 L1080.742,202.2207 L1073.1953,205.2394 " fill="#000000" style="stroke:#000000;stroke-width:1.0;"/><ellipse cx="858" cy="202.2207" fill="#000000" rx="3" ry="3" style="stroke:#000000;stroke-width:1.0;"/><path d="M364,360.2207 L377,360.2207 C440.8161,360.2207 366.2323,264.6405 413,221.2207 C437.8836,198.1184 469.6872,183.8916 502.7952,175.4193 " fill="none" style="stroke:#000000;stroke-width:1.0;stroke-dasharray:3.0,3.0;"/><path d="M503.5252,178.432 L505.0548,174.8718 L502.0652,172.4066 L510.3271,173.5944 L503.5252,178.432 " fill="#000000" style="stroke:#000000;stroke-width:1.0;"/><ellipse cx="364" cy="360.2207" fill="#000000" rx="3" ry="3" style="stroke:#000000;stroke-width:1.0;"/><path d="M878,322.2207 L891,322.2207 C950.5835,322.2207 1016.2369,322.2207 1073.1198,322.2207 " fill="none" style="stroke:#000000;stroke-width:1.0;stroke-dasharray:3.0,3.0;"/><path d="M1073.1198,325.2637 L1075.402,322.2207 L1073.1198,319.1777 L1080.7272,322.2207 L1073.1198,325.2637 " fill="#000000" style="stroke:#000000;stroke-width:1.0;"/><ellipse cx="878" cy="322.2207" fill="#000000" rx="3" ry="3" style="stroke:#000000;stroke-width:1.0;"/><path d="M364,381.2207 L377,381.2207 C400.9176,381.2207 392.3158,353.2296 413,341.2207 C434.5177,328.7279 458.3485,318.8302 482.7301,310.9897 " fill="none" style="stroke:#000000;stroke-width:1.0;stroke-dasharray:3.0,3.0;"/><path d="M483.635,313.8836 L484.9005,310.3111 L481.8252,308.0959 L489.9648,308.7275 L483.635,313.8836 " fill="#000000" style="stroke:#000000;stroke-width:1.0;"/><ellipse cx="364" cy="381.2207" fill="#000000" rx="3" ry="3" style="stroke:#000000;stroke-width:1.0;"/><path d="M866,442.2207 L879,442.2207 C930.489,442.2207 986.3512,442.2207 1037.6722,442.2207 " fill="none" style="stroke:#000000;stroke-width:1.0;stroke-dasharray:3.0,3.0;"/><path d="M1037.6722,445.2359 L1039.9336,442.2207 L1037.6722,439.2055 L1045.2102,442.2207 L1037.6722,445.2359 " fill="#000000" style="stroke:#000000;stroke-width:1.0;"/><ellipse cx="866" cy="442.2207" fill="#000000" rx="3" ry="3" style="stroke:#000000;stroke-width:1.0;"/><path d="M364,401.2207 L377,401.2207 C414.832,401.2207 455.2445,401.2207 494.0133,401.2207 " fill="none" style="stroke:#000000;stroke-width:1.0;stroke-dasharray:3.0,3.0;"/><path d="M494.0133,404.3129 L496.3325,401.2207 L494.0133,398.1285 L501.7439,401.2207 L494.0133,404.3129 " fill="#000000" style="stroke:#000000;stroke-width:1.0;"/><ellipse cx="364" cy="401.2207" fill="#000000" rx="3" ry="3" style="stroke:#000000;stroke-width:1.0;"/><path d="M880,562.2207 L893,562.2207 C955.7528,562.2207 1025.2796,562.2207 1084.031,562.2207 " fill="none" style="stroke:#000000;stroke-width:1.0;stroke-dasharray:3.0,3.0;"/><path d="M1084.031,565.3594 L1086.385,562.2207 L1084.031,559.082 L1091.8777,562.2207 L1084.031,565.3594 " fill="#000000" style="stroke:#000000;stroke-width:1.0;"/><ellipse cx="880" cy="562.2207" fill="#000000" rx="3" ry="3" style="stroke:#000000;stroke-width:1.0;"/><path d="M364,421.2207 L377,421.2207 C400.9176,421.2207 392.3158,449.2118 413,461.2207 C433.8489,473.3252 456.8693,482.9934 480.4582,490.7146 " fill="none" style="stroke:#000000;stroke-width:1.0;stroke-dasharray:3.0,3.0;"/><path d="M479.5245,493.6495 L482.6594,491.4149 L481.3919,487.7797 L487.7954,493.0489 L479.5245,493.6495 " fill="#000000" style="stroke:#000000;stroke-width:1.0;"/><ellipse cx="364" cy="421.2207" fill="#000000" rx="3" ry="3" style="stroke:#000000;stroke-width:1.0;"/><path d="M954,682.2207 L967,682.2207 C1001.3016,682.2207 1038.2191,682.2207 1072.9646,682.2207 " fill="none" style="stroke:#000000;stroke-width:1.0;stroke-dasharray:3.0,3.0;"/><path d="M1072.9646,685.3583 L1075.3178,682.2207 L1072.9646,679.0831 L1080.8087,682.2207 L1072.9646,685.3583 " fill="#000000" style="stroke:#000000;stroke-width:1.0;"/><ellipse cx="954" cy="682.2207" fill="#000000" rx="3" ry="3" style="stroke:#000000;stroke-width:1.0;"/><path d="M364,442.2207 L377,442.2207 C440.8161,442.2207 366.9959,536.9927 413,581.2207 C414.2925,582.4633 415.6043,583.6826 416.9347,584.879 " fill="none" style="stroke:#000000;stroke-width:1.0;stroke-dasharray:3.0,3.0;"/><path d="M414.8943,587.2589 L418.7196,586.4093 L418.9751,582.4991 L422.8844,589.9799 L414.8943,587.2589 " fill="#000000" style="stroke:#000000;stroke-width:1.0;"/><ellipse cx="364" cy="442.2207" fill="#000000" rx="3" ry="3" style="stroke:#000000;stroke-width:1.0;"/><path d="M918,802.2207 L931,802.2207 C977.2207,802.2207 1027.5996,802.2207 1073.1587,802.2207 " fill="none" style="stroke:#000000;stroke-width:1.0;stroke-dasharray:3.0,3.0;"/><path d="M1073.1587,805.2457 L1075.4275,802.2207 L1073.1587,799.1957 L1080.7212,802.2207 L1073.1587,805.2457 " fill="#000000" style="stroke:#000000;stroke-width:1.0;"/><ellipse cx="918" cy="802.2207" fill="#000000" rx="3" ry="3" style="stroke:#000000;stroke-width:1.0;"/><path d="M364,462.2207 L377,462.2207 C430.7102,462.2207 376.2666,662.0359 413,701.2207 C422.1813,711.0147 432.5553,719.4001 443.7619,726.5662 " fill="none" style="stroke:#000000;stroke-width:1.0;stroke-dasharray:3.0,3.0;"/><path d="M442.13,729.2429 L445.7695,727.7901 L445.3939,723.8895 L450.4537,730.646 L442.13,729.2429 " fill="#000000" style="stroke:#000000;stroke-width:1.0;"/><ellipse cx="364" cy="462.2207" fill="#000000" rx="3" ry="3" style="stroke:#000000;stroke-width:1.0;"/><path d="M305,401.2207 L318,401.2207 C327.4213,401.2207 337.9164,401.2207 346.5483,401.2207 " fill="none" style="stroke:#000000;stroke-width:1.0;stroke-dasharray:3.0,3.0;"/><path d="M346.5483,404.2644 L348.8311,401.2207 L346.5483,398.177 L354.1575,401.2207 L346.5483,404.2644 " fill="#000000" style="stroke:#000000;stroke-width:1.0;"/><ellipse cx="305" cy="401.2207" fill="#000000" rx="3" ry="3" style="stroke:#000000;stroke-width:1.0;"/><!--SRC=[tLPDQzj04BtlhnXqIi0HjbDAq2aqYGkktPWwoINuC8v6waQhNR6x4X4XFwV_8VVyiUvAZksM5jUnQQ6NnSp7stblts2T6elQtXibsIC320gjhCgK418h6KGGI1Lc9aouEtAqccSPYKIHvZ8DEhwZ8ctkLLDRzTjGJY9sUMFhWhHBtBeWm6DpkZIFDm27LJzCTIcbmFQIfcrE9jEy8c78zwyINr5Fi1OAFQxL9IqpHHiUy5Swjy6yJbCoc8KFkGWwRXWPqqFe1GXcoxuCvRH2JMEAcwODi-RAMhJMmssep2fkxKAyZSK9SR6GCYpJslr84wN95Ax4aDWImP1sJ-KZmQpX-THvmxCigMxtAWcw_395sgixGVmJSPT6s67gTTdtQQTW1TpwwPynT6jiI_DRTeF6Do_FtZUWScZBeNZv1YJ1hSFRwBSmFrBVSdTQ2ECwVl9p8L1klmM_wjgFyzS7tQk7Li0xU6Zn_ZlmswZpNacltxQ7pUd0tnLepLB_bIxkdB4dTaeoRhu9sCJjaxqUZy3_pNCbeHVsk_tZyEHWMaeOOmtz7lIwqV59rEt2sSNq2dp-a1ryd8p0g5BV4SJSk8ldfNK0Xso85SANKbgUKmIN1SdX-QVN05p8YcibSvAM3M_6guBtxuu-S0lJHdcu6RDpIh0KrdNSAQzN1DTNWwCJDaAPbfWwR9BiJ3bSNKVm-V8x]--></g></svg>